<svg width="30" height="30" viewBox="0 0 30 30" fill="none" xmlns="http://www.w3.org/2000/svg">
<path d="M15.0001 24.3751C14.8769 24.3752 14.755 24.351 14.6412 24.3038C14.5275 24.2567 14.4242 24.1876 14.3372 24.1004L4.96225 14.7254C4.59592 14.359 4.59592 13.7658 4.96225 13.3997C5.32857 13.0337 5.92178 13.0334 6.28787 13.3997L15.0001 22.1119L23.7122 13.3997C24.0786 13.0334 24.6718 13.0334 25.0379 13.3997C25.404 13.7661 25.4042 14.3593 25.0379 14.7254L15.6629 24.1004C15.5759 24.1876 15.4726 24.2567 15.3589 24.3038C15.2451 24.351 15.1232 24.3752 15.0001 24.3751ZM15.6629 16.6004L25.0379 7.22537C25.4042 6.85904 25.4042 6.26584 25.0379 5.89975C24.6715 5.53365 24.0783 5.53342 23.7122 5.89975L15.0001 14.6119L6.28787 5.89975C5.92154 5.53342 5.32834 5.53342 4.96225 5.89975C4.59615 6.26607 4.59592 6.85928 4.96225 7.22537L14.3372 16.6004C14.5203 16.7834 14.7603 16.8751 15.0001 16.8751C15.2398 16.8751 15.4798 16.7834 15.6629 16.6004Z" fill="#0074FF"/>
</svg>
