<svg width="1334" height="245" viewBox="0 0 1334 245" fill="none" xmlns="http://www.w3.org/2000/svg">
<path d="M528.801 59.5865C536.134 59.5865 541.682 61.5008 545.446 65.3293C549.274 69.093 551.189 74.6412 551.189 81.9739V105.335C551.189 112.667 549.274 118.248 545.446 122.076C541.682 125.84 536.134 127.722 528.801 127.722H490.84V59.5865H528.801ZM533.668 81.9739C533.668 76.1337 530.748 73.2136 524.908 73.2136H508.361V114.095H524.908C530.748 114.095 533.668 111.175 533.668 105.335V81.9739ZM589.61 90.2474C585.522 90.2474 581.304 91.2208 576.956 93.1675V127.722H559.922V76.1337H575.009L575.983 82.4605C581.563 77.5937 587.404 75.1603 593.503 75.1603H597.884V90.2474H589.61ZM655.354 113.121C655.354 117.988 653.959 121.817 651.168 124.607C648.443 127.333 644.647 128.695 639.78 128.695H617.393C612.526 128.695 608.697 127.333 605.907 124.607C603.181 121.817 601.819 117.988 601.819 113.121V90.7341C601.819 85.8673 603.181 82.0712 605.907 79.3458C608.697 76.5555 612.526 75.1603 617.393 75.1603H639.78C644.647 75.1603 648.443 76.5555 651.168 79.3458C653.959 82.0712 655.354 85.8673 655.354 90.7341V113.121ZM638.32 92.1942C638.32 89.5985 637.022 88.3007 634.426 88.3007H622.746C620.15 88.3007 618.853 89.5985 618.853 92.1942V111.661C618.853 114.257 620.15 115.555 622.746 115.555H634.426C637.022 115.555 638.32 114.257 638.32 111.661V92.1942ZM692.817 89.2741C689.378 89.2741 685.484 89.923 681.136 91.2208V127.722H664.103V76.1337H679.19L680.163 81.0005C683.213 78.9889 686.328 77.5288 689.507 76.6204C692.752 75.647 695.477 75.1603 697.684 75.1603H702.064C706.476 75.1603 710.013 76.4906 712.673 79.1511C715.334 81.8116 716.664 85.3482 716.664 89.7608V127.722H699.63V92.6809C699.63 91.7075 699.306 90.8964 698.657 90.2474C698.008 89.5985 697.197 89.2741 696.224 89.2741H692.817ZM745.367 87.3274C742.771 87.3274 741.474 88.6252 741.474 91.2208V96.5743H758.021V91.2208C758.021 88.6252 756.723 87.3274 754.127 87.3274H745.367ZM773.108 126.749C760.584 128.046 749.228 128.695 739.04 128.695C734.628 128.695 731.091 127.365 728.43 124.704C725.77 122.044 724.44 118.507 724.44 114.095V90.7341C724.44 85.8673 725.802 82.0712 728.528 79.3458C731.318 76.5555 735.147 75.1603 740.014 75.1603H759.481C764.348 75.1603 768.144 76.5555 770.869 79.3458C773.659 82.0712 775.055 85.8673 775.055 90.7341V108.741H741.474V112.635C741.474 113.608 741.798 114.419 742.447 115.068C743.096 115.717 743.907 116.042 744.88 116.042C751.305 116.042 760.714 115.555 773.108 114.582V126.749ZM831.453 127.722H813.932V59.5865H867.954V73.2136H831.453V89.2741H860.167V102.901H831.453V127.722ZM899.584 90.2474C895.496 90.2474 891.278 91.2208 886.93 93.1675V127.722H869.897V76.1337H884.984L885.957 82.4605C891.538 77.5937 897.378 75.1603 903.478 75.1603H907.858V90.2474H899.584ZM932.72 87.3274C930.125 87.3274 928.827 88.6252 928.827 91.2208V96.5743H945.374V91.2208C945.374 88.6252 944.076 87.3274 941.481 87.3274H932.72ZM960.461 126.749C947.937 128.046 936.581 128.695 926.394 128.695C921.981 128.695 918.444 127.365 915.784 124.704C913.123 122.044 911.793 118.507 911.793 114.095V90.7341C911.793 85.8673 913.156 82.0712 915.881 79.3458C918.672 76.5555 922.5 75.1603 927.367 75.1603H946.834C951.701 75.1603 955.497 76.5555 958.222 79.3458C961.013 82.0712 962.408 85.8673 962.408 90.7341V108.741H928.827V112.635C928.827 113.608 929.151 114.419 929.8 115.068C930.449 115.717 931.26 116.042 932.234 116.042C938.658 116.042 948.067 115.555 960.461 114.582V126.749ZM991.084 87.3274C988.489 87.3274 987.191 88.6252 987.191 91.2208V96.5743H1003.74V91.2208C1003.74 88.6252 1002.44 87.3274 999.844 87.3274H991.084ZM1018.83 126.749C1006.3 128.046 994.945 128.695 984.757 128.695C980.345 128.695 976.808 127.365 974.148 124.704C971.487 122.044 970.157 118.507 970.157 114.095V90.7341C970.157 85.8673 971.52 82.0712 974.245 79.3458C977.035 76.5555 980.864 75.1603 985.731 75.1603H1005.2C1010.06 75.1603 1013.86 76.5555 1016.59 79.3458C1019.38 82.0712 1020.77 85.8673 1020.77 90.7341V108.741H987.191V112.635C987.191 113.608 987.515 114.419 988.164 115.068C988.813 115.717 989.624 116.042 990.597 116.042C997.022 116.042 1006.43 115.555 1018.83 114.582V126.749ZM1055.77 127.722C1051.43 128.371 1047.27 128.695 1043.32 128.695C1039.42 128.695 1036.15 127.365 1033.48 124.704C1030.82 122.044 1029.49 118.507 1029.49 114.095V59.5865H1046.53V111.661C1046.53 112.635 1046.85 113.446 1047.5 114.095C1048.15 114.744 1048.96 115.068 1049.93 115.068H1055.77V127.722ZM1083.01 115.068C1086.45 115.068 1090.35 114.419 1094.69 113.121V107.281H1080.58C1079.61 107.281 1078.8 107.606 1078.15 108.255C1077.5 108.904 1077.17 109.715 1077.17 110.688V111.661C1077.17 112.635 1077.5 113.446 1078.15 114.095C1078.8 114.744 1079.61 115.068 1080.58 115.068H1083.01ZM1065.01 77.107C1076.88 75.8092 1087.59 75.1603 1097.13 75.1603C1101.54 75.1603 1105.08 76.4906 1107.74 79.1511C1110.4 81.8116 1111.73 85.3482 1111.73 89.7608V127.722H1096.64L1095.67 122.855C1092.62 124.867 1089.47 126.359 1086.23 127.333C1083.05 128.241 1080.35 128.695 1078.15 128.695H1074.74C1070.33 128.695 1066.79 127.365 1064.13 124.704C1061.47 122.044 1060.14 118.507 1060.14 114.095V109.715C1060.14 105.302 1061.47 101.766 1064.13 99.1051C1066.79 96.4445 1070.33 95.1143 1074.74 95.1143H1094.69V91.2208C1094.69 90.2474 1094.37 89.4363 1093.72 88.7874C1093.07 88.1385 1092.26 87.814 1091.29 87.814C1087.07 87.814 1082.4 88.0087 1077.27 88.3981C1072.21 88.7874 1068.12 89.0794 1065.01 89.2741V77.107ZM1149.18 89.2741C1145.74 89.2741 1141.84 89.923 1137.5 91.2208V127.722H1120.46V76.1337H1135.55L1136.52 81.0005C1139.57 78.9889 1142.69 77.5288 1145.87 76.6204C1149.11 75.647 1151.84 75.1603 1154.04 75.1603H1158.42C1162.84 75.1603 1166.37 76.4906 1169.03 79.1511C1171.69 81.8116 1173.02 85.3482 1173.02 89.7608V127.722H1155.99V92.6809C1155.99 91.7075 1155.66 90.8964 1155.02 90.2474C1154.37 89.5985 1153.56 89.2741 1152.58 89.2741H1149.18ZM1227.52 126.749C1215.39 128.046 1204.68 128.695 1195.4 128.695C1190.99 128.695 1187.45 127.365 1184.79 124.704C1182.13 122.044 1180.8 118.507 1180.8 114.095V91.7075C1180.8 86.8407 1182.16 83.0446 1184.89 80.3191C1187.68 77.5288 1191.51 76.1337 1196.37 76.1337H1227.52V89.2741H1201.73C1199.13 89.2741 1197.83 90.5719 1197.83 93.1675V112.148C1197.83 113.121 1198.16 113.933 1198.81 114.582C1199.45 115.23 1200.27 115.555 1201.24 115.555C1207.08 115.555 1215.84 115.068 1227.52 114.095V126.749ZM1255.24 87.3274C1252.65 87.3274 1251.35 88.6252 1251.35 91.2208V96.5743H1267.9V91.2208C1267.9 88.6252 1266.6 87.3274 1264 87.3274H1255.24ZM1282.98 126.749C1270.46 128.046 1259.1 128.695 1248.92 128.695C1244.5 128.695 1240.97 127.365 1238.31 124.704C1235.64 122.044 1234.31 118.507 1234.31 114.095V90.7341C1234.31 85.8673 1235.68 82.0712 1238.4 79.3458C1241.19 76.5555 1245.02 75.1603 1249.89 75.1603H1269.36C1274.22 75.1603 1278.02 76.5555 1280.74 79.3458C1283.53 82.0712 1284.93 85.8673 1284.93 90.7341V108.741H1251.35V112.635C1251.35 113.608 1251.67 114.419 1252.32 115.068C1252.97 115.717 1253.78 116.042 1254.76 116.042C1261.18 116.042 1270.59 115.555 1282.98 114.582V126.749ZM1323.34 90.2474C1319.25 90.2474 1315.03 91.2208 1310.69 93.1675V127.722H1293.65V76.1337H1308.74L1309.71 82.4605C1315.29 77.5937 1321.13 75.1603 1327.23 75.1603H1331.61V90.2474H1323.34Z" fill="#3A3B3A"/>
<path d="M615.8 194.244H607.7V162.744H632.675V169.044H615.8V176.469H629.075V182.769H615.8V194.244ZM645.275 171.294V194.244H637.4V177.369H634.025V171.294H645.275ZM637.4 162.294H645.275V168.594H637.4V162.294ZM663.064 176.469C661.474 176.469 659.674 176.769 657.664 177.369V194.244H649.789V170.394H656.764L657.214 172.644C658.624 171.714 660.064 171.039 661.534 170.619C663.034 170.169 664.294 169.944 665.314 169.944H667.339C669.379 169.944 671.014 170.559 672.244 171.789C673.474 173.019 674.089 174.654 674.089 176.694V194.244H666.214V178.044C666.214 177.594 666.064 177.219 665.764 176.919C665.464 176.619 665.089 176.469 664.639 176.469H663.064ZM695.009 194.244L694.559 191.994C693.149 192.924 691.694 193.614 690.194 194.064C688.724 194.484 687.479 194.694 686.459 194.694H684.434C682.394 194.694 680.759 194.079 679.529 192.849C678.299 191.619 677.684 189.984 677.684 187.944V177.594C677.684 175.344 678.314 173.589 679.574 172.329C680.864 171.039 682.634 170.394 684.884 170.394H694.109V162.744H701.984V194.244H695.009ZM688.709 188.169C690.299 188.169 692.099 187.869 694.109 187.269V176.469H687.359C686.159 176.469 685.559 177.069 685.559 178.269V186.594C685.559 187.044 685.709 187.419 686.009 187.719C686.309 188.019 686.684 188.169 687.134 188.169H688.709ZM716.82 162.744H725.37L732.795 178.044L740.22 162.744H748.77L736.845 185.919V194.244H728.745V185.919L716.82 162.744ZM772.175 187.494C772.175 189.744 771.53 191.514 770.24 192.804C768.98 194.064 767.225 194.694 764.975 194.694H754.625C752.375 194.694 750.605 194.064 749.315 192.804C748.055 191.514 747.425 189.744 747.425 187.494V177.144C747.425 174.894 748.055 173.139 749.315 171.879C750.605 170.589 752.375 169.944 754.625 169.944H764.975C767.225 169.944 768.98 170.589 770.24 171.879C771.53 173.139 772.175 174.894 772.175 177.144V187.494ZM764.3 177.819C764.3 176.619 763.7 176.019 762.5 176.019H757.1C755.9 176.019 755.3 176.619 755.3 177.819V186.819C755.3 188.019 755.9 188.619 757.1 188.619H762.5C763.7 188.619 764.3 188.019 764.3 186.819V177.819ZM787.245 188.169C788.835 188.169 790.635 187.869 792.645 187.269V170.394H800.52V194.244H793.545L793.095 191.994C791.685 192.924 790.23 193.614 788.73 194.064C787.26 194.484 786.015 194.694 784.995 194.694H782.97C780.93 194.694 779.295 194.079 778.065 192.849C776.835 191.619 776.22 189.984 776.22 187.944V170.394H784.095V186.594C784.095 187.044 784.245 187.419 784.545 187.719C784.845 188.019 785.22 188.169 785.67 188.169H787.245ZM818.729 176.919C816.839 176.919 814.889 177.369 812.879 178.269V194.244H805.004V170.394H811.979L812.429 173.319C815.009 171.069 817.709 169.944 820.529 169.944H822.554V176.919H818.729ZM839.643 162.744H858.543C861.693 162.744 863.973 163.464 865.383 164.904C866.823 166.314 867.543 168.594 867.543 171.744V176.244C867.543 179.394 866.823 181.689 865.383 183.129C863.973 184.539 861.693 185.244 858.543 185.244H847.743V194.244H839.643V162.744ZM859.443 171.744C859.443 169.944 858.543 169.044 856.743 169.044H847.743V178.944H856.743C858.543 178.944 859.443 178.044 859.443 176.244V171.744ZM881.042 171.294V194.244H873.167V177.369H869.792V171.294H881.042ZM873.167 162.294H881.042V168.594H873.167V162.294ZM897.706 194.244C895.696 194.544 893.776 194.694 891.946 194.694C890.146 194.694 888.631 194.079 887.401 192.849C886.171 191.619 885.556 189.984 885.556 187.944V162.744H893.431V186.819C893.431 187.269 893.581 187.644 893.881 187.944C894.181 188.244 894.556 188.394 895.006 188.394H897.706V194.244ZM925.149 187.494C925.149 189.744 924.504 191.514 923.214 192.804C921.954 194.064 920.199 194.694 917.949 194.694H907.599C905.349 194.694 903.579 194.064 902.289 192.804C901.029 191.514 900.399 189.744 900.399 187.494V177.144C900.399 174.894 901.029 173.139 902.289 171.879C903.579 170.589 905.349 169.944 907.599 169.944H917.949C920.199 169.944 921.954 170.589 923.214 171.879C924.504 173.139 925.149 174.894 925.149 177.144V187.494ZM917.274 177.819C917.274 176.619 916.674 176.019 915.474 176.019H910.074C908.874 176.019 908.274 176.619 908.274 177.819V186.819C908.274 188.019 908.874 188.619 910.074 188.619H915.474C916.674 188.619 917.274 188.019 917.274 186.819V177.819ZM945.843 194.244C942.933 194.544 940.083 194.694 937.293 194.694C935.253 194.694 933.618 194.079 932.388 192.849C931.158 191.619 930.543 189.984 930.543 187.944V176.469H927.843V170.394H930.543L931.443 164.994H938.418V170.394H944.043V176.469H938.418V186.819C938.418 187.269 938.568 187.644 938.868 187.944C939.168 188.244 939.543 188.394 939.993 188.394H945.843V194.244ZM978.254 194.244H970.154V169.044H960.704V162.744H987.704V169.044H978.254V194.244ZM997.618 188.394C999.208 188.394 1001.01 188.094 1003.02 187.494V184.794H996.493C996.043 184.794 995.668 184.944 995.368 185.244C995.068 185.544 994.918 185.919 994.918 186.369V186.819C994.918 187.269 995.068 187.644 995.368 187.944C995.668 188.244 996.043 188.394 996.493 188.394H997.618ZM989.293 170.844C994.783 170.244 999.733 169.944 1004.14 169.944C1006.18 169.944 1007.82 170.559 1009.05 171.789C1010.28 173.019 1010.89 174.654 1010.89 176.694V194.244H1003.92L1003.47 191.994C1002.06 192.924 1000.6 193.614 999.103 194.064C997.633 194.484 996.388 194.694 995.368 194.694H993.793C991.753 194.694 990.118 194.079 988.888 192.849C987.658 191.619 987.043 189.984 987.043 187.944V185.919C987.043 183.879 987.658 182.244 988.888 181.014C990.118 179.784 991.753 179.169 993.793 179.169H1003.02V177.369C1003.02 176.919 1002.87 176.544 1002.57 176.244C1002.27 175.944 1001.89 175.794 1001.44 175.794C999.493 175.794 997.333 175.884 994.963 176.064C992.623 176.244 990.733 176.379 989.293 176.469V170.844ZM1022.81 184.794V194.244H1014.93V162.744H1022.81V178.719H1026.41L1031.36 170.394H1039.68L1032.93 181.869L1039.68 194.244H1031.36L1026.18 184.794H1022.81ZM1050.7 175.569C1049.5 175.569 1048.9 176.169 1048.9 177.369V179.844H1056.55V177.369C1056.55 176.169 1055.95 175.569 1054.75 175.569H1050.7ZM1063.52 193.794C1057.73 194.394 1052.48 194.694 1047.77 194.694C1045.73 194.694 1044.1 194.079 1042.87 192.849C1041.64 191.619 1041.02 189.984 1041.02 187.944V177.144C1041.02 174.894 1041.65 173.139 1042.91 171.879C1044.2 170.589 1045.97 169.944 1048.22 169.944H1057.22C1059.47 169.944 1061.23 170.589 1062.49 171.879C1063.78 173.139 1064.42 174.894 1064.42 177.144V185.469H1048.9V187.269C1048.9 187.719 1049.05 188.094 1049.35 188.394C1049.65 188.694 1050.02 188.844 1050.47 188.844C1053.44 188.844 1057.79 188.619 1063.52 188.169V193.794ZM1090.5 194.244H1082.4V162.744H1107.37V169.044H1090.5V176.469H1103.77V182.769H1090.5V194.244ZM1122.22 194.244C1120.21 194.544 1118.29 194.694 1116.46 194.694C1114.66 194.694 1113.15 194.079 1111.92 192.849C1110.69 191.619 1110.07 189.984 1110.07 187.944V162.744H1117.95V186.819C1117.95 187.269 1118.1 187.644 1118.4 187.944C1118.7 188.244 1119.07 188.394 1119.52 188.394H1122.22V194.244ZM1135.27 171.294V194.244H1127.39V177.369H1124.02V171.294H1135.27ZM1127.39 162.294H1135.27V168.594H1127.39V162.294ZM1155.3 192.444C1152.39 193.044 1149.84 193.344 1147.65 193.344H1146.08C1144.04 193.344 1142.4 192.729 1141.17 191.499C1139.94 190.269 1139.33 188.634 1139.33 186.594V177.594C1139.33 175.344 1139.96 173.589 1141.22 172.329C1142.51 171.039 1144.28 170.394 1146.53 170.394H1163.18V195.594C1163.18 197.634 1162.56 199.269 1161.33 200.499C1160.1 201.729 1158.47 202.344 1156.43 202.344C1151.72 202.344 1146.47 202.044 1140.68 201.444V195.594C1146.41 196.044 1150.76 196.269 1153.73 196.269C1154.18 196.269 1154.55 196.119 1154.85 195.819C1155.15 195.519 1155.3 195.144 1155.3 194.694V192.444ZM1149.9 187.269C1151.79 187.269 1153.59 187.119 1155.3 186.819V176.469H1149C1147.8 176.469 1147.2 177.069 1147.2 178.269V185.694C1147.2 186.144 1147.35 186.519 1147.65 186.819C1147.95 187.119 1148.33 187.269 1148.78 187.269H1149.9ZM1175.56 170.844C1178.47 170.244 1181.02 169.944 1183.21 169.944H1185.23C1187.27 169.944 1188.91 170.559 1190.14 171.789C1191.37 173.019 1191.98 174.654 1191.98 176.694V194.244H1184.11V177.594C1184.11 177.144 1183.96 176.769 1183.66 176.469C1183.36 176.169 1182.98 176.019 1182.53 176.019H1180.96C1179.82 176.019 1178.77 176.079 1177.81 176.199C1176.88 176.319 1176.13 176.409 1175.56 176.469V194.244H1167.68V162.744H1175.56V170.844ZM1212.68 194.244C1209.77 194.544 1206.92 194.694 1204.13 194.694C1202.09 194.694 1200.45 194.079 1199.22 192.849C1197.99 191.619 1197.38 189.984 1197.38 187.944V176.469H1194.68V170.394H1197.38L1198.28 164.994H1205.25V170.394H1210.88V176.469H1205.25V186.819C1205.25 187.269 1205.4 187.644 1205.7 187.944C1206 188.244 1206.38 188.394 1206.83 188.394H1212.68V194.244Z" fill="#3A3B3A"/>
<path d="M45.8347 153.255C36.7347 151.975 16.8347 149.555 21.7747 134.885C24.1547 127.815 32.7447 120.615 39.3647 116.325C49.6447 109.675 60.4947 104.225 71.9147 99.985C94.7247 91.515 118.435 86.1849 142.515 85.8749C148.775 85.8049 155.275 86.705 162.015 88.585C172.585 91.545 177.955 98.885 171.185 108.895C167.345 114.575 162.395 119.185 156.325 122.725C156.295 122.745 156.285 122.765 156.295 122.805C156.325 122.885 156.335 122.955 156.335 123.035C156.335 123.165 156.385 123.205 156.505 123.145C166.905 117.675 196.995 98.3949 188.495 82.8849C181.785 70.6349 154.335 69.565 143.075 70.295C111.855 72.305 81.9647 79.485 53.3947 91.825C37.1647 98.845 22.2447 107.105 9.44473 119.245C6.27473 122.245 3.87473 125.825 2.22473 129.975C-2.04527 140.725 5.74472 147.625 15.0047 150.455C24.7447 153.425 34.9447 154.555 45.6147 153.845C45.8947 153.825 46.0447 153.705 46.0447 153.485C46.0247 153.365 45.9447 153.275 45.8347 153.255Z" stroke="#CFCECD" stroke-width="2"/>
<path d="M291.595 84.1349C282.635 83.9149 258.405 80.8349 263.905 65.9549C267.695 55.6749 279.925 47.3249 289.705 42.0649C315.545 28.1749 343.015 19.8749 372.095 17.1649C382.995 16.1549 407.925 15.5149 414.935 26.2949C420.255 34.4749 409.925 45.0649 403.455 49.8949C403.335 49.9849 403.285 50.1349 403.325 50.2849C403.345 50.3649 403.375 50.4549 403.395 50.5349C403.445 50.6949 403.615 50.7849 403.775 50.7449C403.795 50.7349 403.815 50.7349 403.825 50.7249C413.485 45.5349 428.455 34.1549 431.535 23.1249C433.955 14.4749 428.205 8.76491 420.765 5.60491C410.155 1.10491 396.375 0.524919 384.155 1.27492C362.095 2.61492 340.585 6.68492 319.615 13.4649C299.755 19.8949 281.255 28.1249 263.855 39.7649C255.415 45.4049 238.085 59.9749 244.365 71.9849C250.965 84.6249 278.935 85.4049 290.425 84.5449C290.435 84.5449 290.645 84.5649 291.035 84.5949C291.265 84.6149 291.485 84.5249 291.685 84.3449C291.735 84.3049 291.735 84.2249 291.695 84.1749C291.665 84.1549 291.625 84.1349 291.595 84.1349Z" stroke="#CFCECD" stroke-width="2"/>
<path d="M201.985 220.485C203.155 220.615 203.955 220.935 204.365 221.455C214.435 234.165 227.125 241.405 242.435 243.165C271.815 246.565 298.475 225.605 302.425 196.355C302.645 194.725 302.915 193.395 303.235 192.365" stroke="#AECFE9" stroke-width="2"/>
<path d="M303.235 192.365C321.635 173.615 326.865 145.975 305.105 127.425C304.905 127.255 304.805 127.015 304.815 126.765C305.365 115.905 312.065 107.665 319.135 99.2649C324.785 92.5549 330.455 85.8349 336.155 79.1049C336.345 78.8849 336.555 78.865 336.775 79.055C353.535 93.695 358.105 74.4149 358.805 62.2549C359.135 56.6049 358.565 52.0649 357.105 48.6349C348.775 29.0549 312.815 42.7449 326.865 66.4149C327.055 66.7349 327.025 67.1349 326.785 67.4149C317.685 77.9949 308.535 88.245 299.335 98.145C291.495 106.585 285.385 110.195 274.365 112.605C272.515 113.005 270.455 113.125 268.155 112.945C239.825 110.805 214.205 118.155 191.285 134.995C189.455 136.335 187.685 137.295 185.955 137.885C179.425 140.095 171.195 142.145 164.445 140.565C149.775 137.135 134.075 132.595 117.335 126.955C117.075 126.865 116.905 126.615 116.915 126.345C117.315 109.015 98.6546 103.105 86.9446 113.835C75.9046 123.955 84.7146 137.055 92.5846 145.955C95.1046 148.805 97.9346 151.025 101.055 152.615C108.825 156.545 113.365 149.385 115.155 142.535C115.245 142.195 115.455 142.075 115.785 142.185C126.365 145.475 138.195 149.425 151.295 154.005C157.915 156.325 163.335 160.245 167.575 165.785C167.745 166.015 167.795 166.315 167.715 166.585C159.055 192.655 177.635 214.375 201.985 220.485" stroke="#B3DAF3" stroke-width="2"/>
<path d="M303.235 192.365C303.155 177.825 299.225 165.485 291.445 155.355C290.245 153.795 287.845 152.175 286.165 150.185C283.925 147.525 281.335 145.245 278.375 143.365C250.505 125.615 214.125 135.425 199.405 165.075C195.275 173.385 194.485 182.415 194.105 191.535C193.975 194.655 194.255 197.555 194.945 200.245C196.615 206.745 199.195 212.885 202.685 218.665C202.845 218.935 202.845 219.205 202.665 219.465L201.975 220.475" stroke="#64AADD" stroke-width="2"/>
<path d="M421.295 92.3349C415.165 83.4549 394.595 84.1349 385.305 85.0349C363.555 87.1349 342.615 93.0749 322.495 102.845C319.615 104.255 318.765 105.975 316.955 107.945C312.715 112.605 309.945 118.025 308.645 124.205C308.565 124.585 308.575 124.945 308.675 125.275C308.795 125.645 308.915 125.975 309.035 126.275C309.165 126.585 309.525 126.725 309.835 126.595C309.945 126.545 310.035 126.465 310.105 126.375C314.945 119.005 322.955 113.955 330.715 110.125C348.905 101.125 368.115 96.1249 388.355 95.1249C394.695 94.8049 406.045 95.7449 410.455 100.665C415.845 106.685 407.375 114.875 402.305 118.545C402.265 118.575 402.255 118.605 402.285 118.645C402.305 118.665 402.315 118.685 402.325 118.705C402.365 118.785 402.425 118.815 402.495 118.775C409.785 115.005 428.075 102.175 421.295 92.3349Z" stroke="#CFCECD" stroke-width="2"/>
<path d="M80.225 210.555C74.405 209.945 61.365 207.385 64.495 198.265C66.825 191.485 76.955 184.835 83.245 181.585C97.855 174.015 113.325 168.905 129.235 166.435C139.485 164.845 152.755 163.865 162.515 168.315C163.025 168.545 163.625 168.315 163.855 167.815C164.015 167.465 163.965 167.055 163.715 166.755C158.875 160.875 151.805 157.575 144.605 155.645C142.745 155.145 140.735 155.005 138.585 155.245C120.915 157.165 103.835 161.515 87.355 168.295C77.315 172.415 50.505 185.725 50.545 198.965C50.585 210.355 72.615 211.625 80.215 211.015C80.345 211.015 80.445 210.915 80.445 210.795C80.445 210.655 80.345 210.555 80.225 210.555Z" stroke="#CFCECD" stroke-width="2"/>
<path d="M132.525 195.005C131.955 189.965 131.395 185.765 127.125 182.605C121.255 178.255 111.985 179.845 107.195 185.215C103.135 189.745 102.825 195.095 106.255 201.255C109.245 206.615 115.555 215.045 121.665 216.245C127.625 217.425 129.705 211.645 131.185 206.595C131.265 206.325 131.485 206.135 131.765 206.085C141.885 204.555 152.035 203.255 162.225 202.205C164.185 201.995 166.245 202.275 168.315 202.395C168.775 202.425 168.875 202.235 168.625 201.855C166.335 198.445 164.645 194.755 163.555 190.775C163.495 190.535 163.255 190.385 163.005 190.425L133.085 195.435C132.755 195.485 132.565 195.345 132.525 195.005Z" stroke="#AECFE9" stroke-width="2"/>
<path d="M349.795 133.435L321.745 144.995C321.445 145.125 321.345 145.345 321.425 145.655C322.485 149.585 322.995 153.595 322.955 157.675C322.945 157.885 323.115 158.065 323.325 158.075C323.425 158.075 323.515 158.045 323.595 157.975C324.915 156.865 326.375 155.905 327.985 155.095C337.315 150.395 346.795 145.945 356.425 141.745C356.695 141.635 357.005 141.685 357.205 141.895C374.995 159.795 378.425 124.625 373.465 116.345C365.305 102.725 338.615 114.275 350.045 132.695C350.235 133.035 350.155 133.275 349.795 133.435Z" stroke="#AECFE9" stroke-width="2"/>
<path d="M286.755 191.195C281.245 171.935 261.165 160.785 241.905 166.295C222.645 171.805 211.495 191.885 217.005 211.145C222.515 230.405 242.595 241.555 261.855 236.045C281.125 230.535 292.275 210.455 286.755 191.195Z" stroke="#AECFE9" stroke-width="2"/>
<path d="M280.475 192.965C275.955 177.175 259.495 168.045 243.715 172.555C227.925 177.075 218.795 193.535 223.305 209.315C227.825 225.105 244.285 234.235 260.065 229.725C275.855 225.205 284.995 208.745 280.475 192.965Z" stroke="#CFCECD" stroke-width="2"/>
<path d="M266.605 178.815C265.765 175.885 262.715 174.195 259.785 175.035C256.855 175.875 255.165 178.925 256.005 181.855C256.845 184.785 259.895 186.475 262.825 185.635C265.755 184.795 267.445 181.745 266.605 178.815Z" stroke="#CFCECD" stroke-width="2"/>
<path d="M267.494 196.715C265.024 188.085 256.024 183.095 247.394 185.555C238.764 188.025 233.774 197.025 236.234 205.655C238.704 214.285 247.704 219.275 256.334 216.815C264.964 214.345 269.964 205.345 267.494 196.715Z" stroke="#CFCECD" stroke-width="2"/>
<path d="M45.8346 153.255C45.9446 153.265 46.0246 153.365 46.0246 153.475C46.0246 153.695 45.8746 153.815 45.5946 153.835C34.9246 154.555 24.7246 153.425 14.9846 150.445C5.72458 147.615 -2.07542 140.715 2.20458 129.965C3.85458 125.805 6.26458 122.235 9.42458 119.235C22.2246 107.095 37.1446 98.8349 53.3746 91.8149C81.9446 79.4749 111.845 72.2949 143.055 70.2849C154.305 69.5549 181.765 70.6249 188.475 82.8749C196.975 98.3849 166.885 117.665 156.485 123.135C156.365 123.195 156.315 123.165 156.315 123.025C156.315 122.955 156.305 122.875 156.275 122.795C156.265 122.755 156.275 122.725 156.305 122.715C162.375 119.175 167.335 114.565 171.165 108.885C177.935 98.8749 172.575 91.535 161.995 88.575C155.265 86.695 148.765 85.795 142.495 85.865C118.415 86.175 94.7046 91.5049 71.8946 99.9749C60.4746 104.215 49.6246 109.665 39.3446 116.315C32.7246 120.605 24.1346 127.805 21.7546 134.875C16.8346 149.555 36.7346 151.975 45.8346 153.255Z" fill="#414B4D"/>
<path d="M291.594 84.1349C291.664 84.1349 291.714 84.1949 291.714 84.2549C291.714 84.2849 291.694 84.3249 291.674 84.3449C291.474 84.5249 291.264 84.6149 291.024 84.5949C290.624 84.5649 290.424 84.5449 290.414 84.5449C278.924 85.4149 250.954 84.6249 244.354 71.9849C238.074 59.9749 255.404 45.4049 263.844 39.7649C281.244 28.1249 299.744 19.8949 319.604 13.4649C340.574 6.67492 362.084 2.61492 384.144 1.27492C396.374 0.524918 410.154 1.1149 420.754 5.6049C428.204 8.7649 433.954 14.4649 431.524 23.1249C428.444 34.1549 413.474 45.5449 403.814 50.7249C403.664 50.8049 403.484 50.7449 403.404 50.5949C403.394 50.5749 403.384 50.5549 403.384 50.5449C403.364 50.4649 403.334 50.3749 403.314 50.2949C403.274 50.1449 403.324 49.9949 403.444 49.9049C409.914 45.0649 420.234 34.4849 414.924 26.3049C407.924 15.5249 382.984 16.1549 372.084 17.1749C343.004 19.8849 315.544 28.1849 289.694 42.0749C279.914 47.3349 267.694 55.6849 263.894 65.9649C258.404 80.8349 282.634 83.9149 291.594 84.1349Z" fill="#414B4D"/>
<path d="M303.235 192.365C303.155 177.825 299.225 165.485 291.445 155.355C290.245 153.795 287.845 152.175 286.165 150.185C283.925 147.525 281.335 145.245 278.375 143.365C250.505 125.615 214.125 135.425 199.405 165.075C195.275 173.385 194.485 182.415 194.105 191.535C193.975 194.655 194.255 197.555 194.945 200.245C196.615 206.745 199.195 212.885 202.685 218.665C202.845 218.935 202.845 219.205 202.665 219.465L201.975 220.475C177.635 214.365 159.045 192.645 167.705 166.575C167.795 166.305 167.745 166.005 167.565 165.775C163.325 160.245 157.895 156.315 151.285 153.995C138.195 149.405 126.355 145.465 115.775 142.175C115.445 142.075 115.235 142.185 115.145 142.525C113.355 149.375 108.805 156.535 101.045 152.605C97.9147 151.015 95.0947 148.795 92.5747 145.945C84.6947 137.035 75.8847 123.945 86.9347 113.825C98.6447 103.085 117.305 109.005 116.905 126.335C116.895 126.615 117.065 126.865 117.325 126.945C134.065 132.585 149.775 137.125 164.435 140.555C171.185 142.135 179.415 140.085 185.945 137.875C187.675 137.295 189.445 136.325 191.275 134.985C214.185 118.145 239.815 110.795 268.145 112.935C270.435 113.105 272.505 112.995 274.355 112.595C285.385 110.185 291.485 106.575 299.325 98.1349C308.525 88.2249 317.685 77.9849 326.775 67.4049C327.015 67.1249 327.055 66.7149 326.855 66.4049C312.805 42.7349 348.765 29.0349 357.095 48.6249C358.555 52.0649 359.125 56.6049 358.795 62.2449C358.095 74.4049 353.525 93.6849 336.765 79.0449C336.545 78.8549 336.335 78.8749 336.145 79.0949C330.445 85.8249 324.775 92.5449 319.125 99.2549C312.055 107.655 305.355 115.885 304.805 126.755C304.795 127.005 304.895 127.255 305.095 127.415C326.865 145.975 321.645 173.615 303.235 192.365Z" fill="#3196D3"/>
<path d="M385.304 85.0449C394.594 84.1449 415.164 83.4649 421.294 92.3449C428.074 102.185 409.784 115.015 402.484 118.785C402.414 118.825 402.364 118.795 402.314 118.715C402.304 118.695 402.294 118.675 402.274 118.655C402.244 118.615 402.254 118.585 402.294 118.555C407.374 114.885 415.834 106.695 410.444 100.675C406.034 95.7549 394.684 94.8249 388.344 95.1349C368.104 96.1349 348.894 101.135 330.704 110.135C322.954 113.965 314.944 119.005 310.094 126.385C309.904 126.665 309.534 126.745 309.244 126.555C309.144 126.485 309.064 126.395 309.024 126.285C308.904 125.995 308.784 125.665 308.664 125.285C308.564 124.955 308.554 124.595 308.634 124.215C309.934 118.035 312.714 112.615 316.944 107.955C318.744 105.975 319.594 104.255 322.484 102.855C342.614 93.0749 363.544 87.1349 385.304 85.0449Z" fill="#414B4D"/>
<path d="M80.2245 210.555C80.3545 210.555 80.4545 210.655 80.4445 210.785C80.4445 210.915 80.3445 211.015 80.2145 211.005C72.6145 211.615 50.5745 210.335 50.5445 198.955C50.5045 185.715 77.3145 172.415 87.3545 168.285C103.834 161.505 120.914 157.155 138.584 155.235C140.734 155.005 142.744 155.135 144.604 155.635C151.804 157.565 158.864 160.865 163.714 166.745C164.074 167.165 164.014 167.805 163.584 168.155C163.284 168.405 162.874 168.455 162.514 168.295C152.754 163.845 139.494 164.825 129.234 166.415C113.314 168.895 97.8545 174.005 83.2445 181.565C76.9545 184.815 66.8245 191.465 64.4945 198.245C61.3545 207.385 74.4045 209.945 80.2245 210.555Z" fill="#414B4D"/>
<path d="M303.234 192.365C302.914 193.395 302.644 194.725 302.424 196.355C298.474 225.605 271.814 246.565 242.434 243.165C227.124 241.395 214.434 234.165 204.364 221.455C203.954 220.935 203.154 220.615 201.984 220.485L202.674 219.475C202.844 219.215 202.854 218.945 202.694 218.675C199.204 212.895 196.624 206.755 194.954 200.255C194.264 197.565 193.984 194.665 194.114 191.545C194.494 182.425 195.284 173.395 199.414 165.085C214.134 135.425 250.514 125.625 278.384 143.375C281.334 145.255 283.934 147.535 286.174 150.195C287.854 152.185 290.254 153.805 291.454 155.365C299.224 165.485 303.154 177.825 303.234 192.365ZM286.754 191.195C281.244 171.935 261.164 160.785 241.904 166.295C222.644 171.805 211.494 191.885 217.004 211.145C222.514 230.405 242.594 241.555 261.854 236.045C281.124 230.535 292.274 210.455 286.754 191.195Z" fill="#0B75AC"/>
<path d="M133.085 195.425L163.005 190.415C163.255 190.375 163.485 190.525 163.555 190.765C164.645 194.745 166.335 198.435 168.625 201.845C168.885 202.235 168.775 202.415 168.315 202.385C166.245 202.255 164.195 201.985 162.225 202.195C152.035 203.245 141.885 204.535 131.765 206.075C131.485 206.125 131.265 206.315 131.185 206.585C129.705 211.625 127.635 217.415 121.665 216.235C115.555 215.035 109.235 206.605 106.255 201.245C102.825 195.085 103.135 189.735 107.195 185.205C111.995 179.835 121.255 178.255 127.125 182.595C131.395 185.755 131.955 189.965 132.525 194.995C132.565 195.345 132.755 195.485 133.085 195.425Z" fill="#0B75AC"/>
<path d="M349.795 133.435C350.155 133.285 350.235 133.035 350.035 132.705C338.605 114.275 365.285 102.735 373.455 116.355C378.415 124.635 374.985 159.805 357.195 141.905C356.995 141.705 356.685 141.645 356.415 141.755C346.785 145.965 337.305 150.415 327.975 155.105C326.375 155.915 324.915 156.875 323.585 157.985C323.425 158.125 323.185 158.115 323.045 157.955C322.975 157.885 322.945 157.785 322.945 157.685C322.985 153.605 322.475 149.595 321.415 145.665C321.335 145.355 321.435 145.125 321.735 145.005L349.795 133.435Z" fill="#0B75AC"/>
<path d="M286.755 191.195C292.265 210.455 281.115 230.535 261.855 236.045C242.595 241.555 222.515 230.405 217.005 211.145C211.495 191.885 222.645 171.805 241.905 166.295C261.165 160.785 281.245 171.925 286.755 191.195ZM280.475 192.965C275.955 177.175 259.495 168.045 243.715 172.555C227.925 177.075 218.795 193.535 223.305 209.315C227.825 225.105 244.285 234.235 260.065 229.725C275.855 225.205 284.995 208.745 280.475 192.965Z" fill="white"/>
<path d="M280.475 192.965C284.995 208.755 275.855 225.215 260.065 229.725C244.275 234.245 227.815 225.105 223.305 209.315C218.785 193.525 227.925 177.065 243.715 172.555C259.505 168.035 275.965 177.175 280.475 192.965ZM266.605 178.815C265.765 175.885 262.715 174.195 259.785 175.035C256.855 175.875 255.165 178.925 256.005 181.855C256.845 184.785 259.895 186.475 262.825 185.635C265.755 184.795 267.445 181.745 266.605 178.815ZM267.495 196.715C265.025 188.085 256.025 183.095 247.395 185.555C238.765 188.025 233.775 197.025 236.235 205.655C238.705 214.285 247.705 219.275 256.335 216.815C264.965 214.345 269.965 205.345 267.495 196.715Z" fill="#414B4D"/>
<path d="M261.304 185.845C264.348 185.845 266.814 183.378 266.814 180.335C266.814 177.292 264.348 174.825 261.304 174.825C258.261 174.825 255.794 177.292 255.794 180.335C255.794 183.378 258.261 185.845 261.304 185.845Z" fill="white"/>
<path d="M251.865 217.435C260.839 217.435 268.115 210.16 268.115 201.185C268.115 192.21 260.839 184.935 251.865 184.935C242.89 184.935 235.615 192.21 235.615 201.185C235.615 210.16 242.89 217.435 251.865 217.435Z" fill="white"/>
</svg>
