<svg width="28" height="28" viewBox="0 0 28 28" fill="none" xmlns="http://www.w3.org/2000/svg">
<g clip-path="url(#clip0_708_1062)">
<path d="M20.9139 16.3698C20.9033 16.3324 20.8829 16.2984 20.8548 16.2714L18.4486 14.0445H17.6983L16.7489 15.6873L19.2645 17.1683L20.6842 20.2548C20.7344 20.4237 20.8496 20.5656 21.0045 20.6495C21.1593 20.7334 21.3412 20.7524 21.51 20.7022C21.6788 20.652 21.8208 20.5368 21.9047 20.3819C21.9886 20.2271 22.0075 20.0452 21.9573 19.8764L20.9139 16.3698ZM9.54328 14.0445L7.13703 16.2714C7.10893 16.2984 7.08854 16.3324 7.07797 16.3698L6.03672 19.9048C6.0273 19.9509 6.02217 19.9978 6.0214 20.0448C6.00906 20.2079 6.05805 20.3697 6.15877 20.4986C6.2595 20.6274 6.4047 20.714 6.56594 20.7414C6.72717 20.7688 6.89282 20.7349 7.03042 20.6466C7.16803 20.5582 7.26767 20.4216 7.30984 20.2636L8.73609 17.1683L11.2342 15.6983L10.2805 14.0445H9.54328ZM13.9992 10.8398C13.7009 10.8394 13.4092 10.9275 13.161 11.0929C12.9129 11.2584 12.7193 11.4938 12.605 11.7692C12.4906 12.0447 12.4606 12.348 12.5187 12.6405C12.5768 12.9331 12.7204 13.2019 12.9313 13.4128C13.1422 13.6237 13.411 13.7673 13.7035 13.8254C13.9961 13.8835 14.2993 13.8534 14.5748 13.7391C14.8503 13.6247 15.0857 13.4312 15.2511 13.183C15.4166 12.9348 15.5046 12.6431 15.5042 12.3448C15.5036 11.9459 15.3449 11.5634 15.0628 11.2813C14.7807 10.9992 14.3982 10.8404 13.9992 10.8398Z" fill="#0076FF"/>
<path d="M27.5928 7.81181H27.5665L25.4862 7.37431C24.7506 7.22042 23.9851 7.30232 23.2987 7.60838L22.8481 7.80963V7.5165C22.8481 7.45848 22.825 7.40284 22.784 7.36182C22.743 7.3208 22.6874 7.29775 22.6293 7.29775C22.5713 7.29775 22.5157 7.3208 22.4747 7.36182C22.4336 7.40284 22.4106 7.45848 22.4106 7.5165V7.80744L21.9622 7.60619C21.2755 7.30086 20.5103 7.21898 19.7747 7.37213L17.6834 7.80963C17.2459 7.92119 17.2459 8.34994 17.259 8.50963V8.56213C17.2596 8.70583 17.317 8.84348 17.4186 8.94509C17.5202 9.04671 17.6578 9.10405 17.8015 9.10463H22.4128V9.774H22.0934C21.9811 9.77386 21.873 9.81694 21.7915 9.89431C21.7101 9.97169 21.6615 10.0774 21.6559 10.1896L21.5925 11.3096H17.4362L16.29 9.32556C16.2136 9.19332 16.104 9.08336 15.972 9.0066C15.84 8.92985 15.6902 8.88899 15.5375 8.88806H12.4334C12.2803 8.8886 12.1301 8.92929 11.9977 9.00606C11.8652 9.08283 11.7553 9.193 11.6787 9.32556L10.5347 11.3074H6.37841L6.31278 10.1874C6.30717 10.0752 6.2586 9.9695 6.17716 9.89213C6.09571 9.81475 5.98762 9.77167 5.87528 9.77181H5.59528V9.10244H10.2065C10.3506 9.10244 10.4888 9.04535 10.5909 8.94368C10.693 8.842 10.7506 8.70402 10.7512 8.55994V8.52931C10.7735 8.38257 10.7455 8.2326 10.6716 8.10387C10.5977 7.97515 10.4823 7.87528 10.3443 7.82056H10.3181L8.23559 7.38306C7.49998 7.22871 6.7344 7.31063 6.0481 7.61713L5.59747 7.81838V7.5165C5.59747 7.45848 5.57442 7.40284 5.5334 7.36182C5.49238 7.3208 5.43674 7.29775 5.37872 7.29775C5.3207 7.29775 5.26506 7.3208 5.22404 7.36182C5.18302 7.40284 5.15997 7.45848 5.15997 7.5165V7.80744L4.72247 7.60619C4.03573 7.30129 3.27067 7.21943 2.53497 7.37213L0.437158 7.80744C-0.000342336 7.919 -0.000342342 8.34775 0.0105952 8.50744V8.55994C0.0105847 8.70269 0.0668391 8.83969 0.167163 8.94124C0.267486 9.04279 0.403793 9.10071 0.546533 9.10244H5.15778V9.77181H4.84716C4.73482 9.77167 4.62673 9.81475 4.54528 9.89213C4.46384 9.9695 4.41527 10.0752 4.40966 10.1874L4.21497 13.5321C4.21109 13.5988 4.2209 13.6656 4.24378 13.7284C4.26666 13.7912 4.30214 13.8486 4.34803 13.8971C4.39393 13.9457 4.44926 13.9844 4.51065 14.0107C4.57203 14.0371 4.63816 14.0507 4.70497 14.0506H6.0306C6.09732 14.0507 6.16337 14.0371 6.22468 14.0108C6.28599 13.9845 6.34128 13.9459 6.38716 13.8974C6.46187 13.8176 6.50803 13.7153 6.51841 13.6065H10.5347L11.6787 15.5906C11.7553 15.7231 11.8652 15.8333 11.9977 15.9101C12.1301 15.9868 12.2803 16.0275 12.4334 16.0281H15.5484C15.7011 16.0271 15.8509 15.9863 15.9829 15.9095C16.1149 15.8328 16.2246 15.7228 16.3009 15.5906L17.4472 13.6065H21.4656C21.4781 13.727 21.5349 13.8385 21.6251 13.9194C21.7153 14.0002 21.8323 14.0446 21.9534 14.044H23.279C23.3458 14.0441 23.4118 14.0306 23.4731 14.0042C23.5344 13.9779 23.5897 13.9393 23.6356 13.8909C23.681 13.8419 23.7161 13.7844 23.739 13.7216C23.7619 13.6589 23.7721 13.5923 23.769 13.5256L23.5722 10.1809C23.5665 10.0687 23.518 9.96294 23.4365 9.88556C23.3551 9.80819 23.247 9.76511 23.1347 9.76525H22.8459V9.10244H27.4593C27.6028 9.10186 27.7403 9.04445 27.8415 8.94277C27.9428 8.8411 27.9997 8.70344 27.9997 8.55994V8.52931C28.0241 8.38122 27.9971 8.22922 27.923 8.09865C27.849 7.96808 27.7324 7.86684 27.5928 7.81181ZM13.9997 14.289C13.6149 14.2894 13.2387 14.1757 12.9187 13.9623C12.5986 13.7489 12.349 13.4453 12.2014 13.09C12.0539 12.7347 12.0151 12.3436 12.0899 11.9663C12.1647 11.5889 12.3497 11.2422 12.6216 10.97C12.8935 10.6978 13.24 10.5124 13.6173 10.4372C13.9946 10.3619 14.3857 10.4003 14.7412 10.5474C15.0966 10.6946 15.4005 10.9438 15.6143 11.2637C15.828 11.5835 15.9422 11.9596 15.9422 12.3443C15.9416 12.8595 15.7368 13.3535 15.3727 13.718C15.0086 14.0825 14.5149 14.2878 13.9997 14.289Z" fill="#0076FF"/>
</g>
<defs>
<clipPath id="clip0_708_1062">
<rect width="28" height="28" fill="white"/>
</clipPath>
</defs>
</svg>
