<svg width="1334" height="245" viewBox="0 0 1334 245" fill="none" xmlns="http://www.w3.org/2000/svg">
<path d="M528.801 59.5859C536.134 59.5859 541.682 61.5002 545.446 65.3287C549.274 69.0924 551.189 74.6406 551.189 81.9733V105.334C551.189 112.666 549.274 118.247 545.446 122.075C541.682 125.839 536.134 127.721 528.801 127.721H490.84V59.5859H528.801ZM533.668 81.9733C533.668 76.1331 530.748 73.213 524.908 73.213H508.361V114.094H524.908C530.748 114.094 533.668 111.174 533.668 105.334V81.9733ZM589.61 90.2468C585.522 90.2468 581.304 91.2202 576.956 93.1669V127.721H559.922V76.1331H575.009L575.983 82.4599C581.563 77.5931 587.404 75.1597 593.503 75.1597H597.884V90.2468H589.61ZM655.354 113.12C655.354 117.987 653.959 121.816 651.168 124.606C648.443 127.332 644.647 128.694 639.78 128.694H617.393C612.526 128.694 608.697 127.332 605.907 124.606C603.181 121.816 601.819 117.987 601.819 113.12V90.7335C601.819 85.8667 603.181 82.0706 605.907 79.3452C608.697 76.5549 612.526 75.1597 617.393 75.1597H639.78C644.647 75.1597 648.443 76.5549 651.168 79.3452C653.959 82.0706 655.354 85.8667 655.354 90.7335V113.12ZM638.32 92.1936C638.32 89.5979 637.022 88.3001 634.426 88.3001H622.746C620.15 88.3001 618.853 89.5979 618.853 92.1936V111.66C618.853 114.256 620.15 115.554 622.746 115.554H634.426C637.022 115.554 638.32 114.256 638.32 111.66V92.1936ZM692.817 89.2735C689.378 89.2735 685.484 89.9224 681.136 91.2202V127.721H664.103V76.1331H679.19L680.163 80.9999C683.213 78.9883 686.328 77.5282 689.507 76.6198C692.752 75.6464 695.477 75.1597 697.684 75.1597H702.064C706.476 75.1597 710.013 76.49 712.673 79.1505C715.334 81.811 716.664 85.3476 716.664 89.7602V127.721H699.63V92.6803C699.63 91.7069 699.306 90.8958 698.657 90.2468C698.008 89.5979 697.197 89.2735 696.224 89.2735H692.817ZM745.367 87.3268C742.771 87.3268 741.474 88.6246 741.474 91.2202V96.5737H758.021V91.2202C758.021 88.6246 756.723 87.3268 754.127 87.3268H745.367ZM773.108 126.748C760.584 128.045 749.228 128.694 739.04 128.694C734.628 128.694 731.091 127.364 728.43 124.703C725.77 122.043 724.44 118.506 724.44 114.094V90.7335C724.44 85.8667 725.802 82.0706 728.528 79.3452C731.318 76.5549 735.147 75.1597 740.014 75.1597H759.481C764.348 75.1597 768.144 76.5549 770.869 79.3452C773.659 82.0706 775.055 85.8667 775.055 90.7335V108.74H741.474V112.634C741.474 113.607 741.798 114.418 742.447 115.067C743.096 115.716 743.907 116.041 744.88 116.041C751.305 116.041 760.714 115.554 773.108 114.581V126.748ZM831.453 127.721H813.932V59.5859H867.954V73.213H831.453V89.2735H860.167V102.9H831.453V127.721ZM899.584 90.2468C895.496 90.2468 891.278 91.2202 886.93 93.1669V127.721H869.897V76.1331H884.984L885.957 82.4599C891.538 77.5931 897.378 75.1597 903.478 75.1597H907.858V90.2468H899.584ZM932.72 87.3268C930.125 87.3268 928.827 88.6246 928.827 91.2202V96.5737H945.374V91.2202C945.374 88.6246 944.076 87.3268 941.481 87.3268H932.72ZM960.461 126.748C947.937 128.045 936.581 128.694 926.394 128.694C921.981 128.694 918.444 127.364 915.784 124.703C913.123 122.043 911.793 118.506 911.793 114.094V90.7335C911.793 85.8667 913.156 82.0706 915.881 79.3452C918.672 76.5549 922.5 75.1597 927.367 75.1597H946.834C951.701 75.1597 955.497 76.5549 958.222 79.3452C961.013 82.0706 962.408 85.8667 962.408 90.7335V108.74H928.827V112.634C928.827 113.607 929.151 114.418 929.8 115.067C930.449 115.716 931.26 116.041 932.234 116.041C938.658 116.041 948.067 115.554 960.461 114.581V126.748ZM991.084 87.3268C988.489 87.3268 987.191 88.6246 987.191 91.2202V96.5737H1003.74V91.2202C1003.74 88.6246 1002.44 87.3268 999.844 87.3268H991.084ZM1018.83 126.748C1006.3 128.045 994.945 128.694 984.757 128.694C980.345 128.694 976.808 127.364 974.148 124.703C971.487 122.043 970.157 118.506 970.157 114.094V90.7335C970.157 85.8667 971.52 82.0706 974.245 79.3452C977.035 76.5549 980.864 75.1597 985.731 75.1597H1005.2C1010.06 75.1597 1013.86 76.5549 1016.59 79.3452C1019.38 82.0706 1020.77 85.8667 1020.77 90.7335V108.74H987.191V112.634C987.191 113.607 987.515 114.418 988.164 115.067C988.813 115.716 989.624 116.041 990.597 116.041C997.022 116.041 1006.43 115.554 1018.83 114.581V126.748ZM1055.77 127.721C1051.43 128.37 1047.27 128.694 1043.32 128.694C1039.42 128.694 1036.15 127.364 1033.48 124.703C1030.82 122.043 1029.49 118.506 1029.49 114.094V59.5859H1046.53V111.66C1046.53 112.634 1046.85 113.445 1047.5 114.094C1048.15 114.743 1048.96 115.067 1049.93 115.067H1055.77V127.721ZM1083.01 115.067C1086.45 115.067 1090.35 114.418 1094.69 113.12V107.28H1080.58C1079.61 107.28 1078.8 107.605 1078.15 108.254C1077.5 108.903 1077.17 109.714 1077.17 110.687V111.66C1077.17 112.634 1077.5 113.445 1078.15 114.094C1078.8 114.743 1079.61 115.067 1080.58 115.067H1083.01ZM1065.01 77.1064C1076.88 75.8086 1087.59 75.1597 1097.13 75.1597C1101.54 75.1597 1105.08 76.49 1107.74 79.1505C1110.4 81.811 1111.73 85.3476 1111.73 89.7602V127.721H1096.64L1095.67 122.854C1092.62 124.866 1089.47 126.358 1086.23 127.332C1083.05 128.24 1080.35 128.694 1078.15 128.694H1074.74C1070.33 128.694 1066.79 127.364 1064.13 124.703C1061.47 122.043 1060.14 118.506 1060.14 114.094V109.714C1060.14 105.301 1061.47 101.765 1064.13 99.1045C1066.79 96.4439 1070.33 95.1137 1074.74 95.1137H1094.69V91.2202C1094.69 90.2468 1094.37 89.4357 1093.72 88.7868C1093.07 88.1379 1092.26 87.8134 1091.29 87.8134C1087.07 87.8134 1082.4 88.0081 1077.27 88.3975C1072.21 88.7868 1068.12 89.0788 1065.01 89.2735V77.1064ZM1149.18 89.2735C1145.74 89.2735 1141.84 89.9224 1137.5 91.2202V127.721H1120.46V76.1331H1135.55L1136.52 80.9999C1139.57 78.9883 1142.69 77.5282 1145.87 76.6198C1149.11 75.6464 1151.84 75.1597 1154.04 75.1597H1158.42C1162.84 75.1597 1166.37 76.49 1169.03 79.1505C1171.69 81.811 1173.02 85.3476 1173.02 89.7602V127.721H1155.99V92.6803C1155.99 91.7069 1155.66 90.8958 1155.02 90.2468C1154.37 89.5979 1153.56 89.2735 1152.58 89.2735H1149.18ZM1227.52 126.748C1215.39 128.045 1204.68 128.694 1195.4 128.694C1190.99 128.694 1187.45 127.364 1184.79 124.703C1182.13 122.043 1180.8 118.506 1180.8 114.094V91.7069C1180.8 86.8401 1182.16 83.044 1184.89 80.3185C1187.68 77.5282 1191.51 76.1331 1196.37 76.1331H1227.52V89.2735H1201.73C1199.13 89.2735 1197.83 90.5713 1197.83 93.1669V112.147C1197.83 113.12 1198.16 113.932 1198.81 114.581C1199.45 115.229 1200.27 115.554 1201.24 115.554C1207.08 115.554 1215.84 115.067 1227.52 114.094V126.748ZM1255.24 87.3268C1252.65 87.3268 1251.35 88.6246 1251.35 91.2202V96.5737H1267.9V91.2202C1267.9 88.6246 1266.6 87.3268 1264 87.3268H1255.24ZM1282.98 126.748C1270.46 128.045 1259.1 128.694 1248.92 128.694C1244.5 128.694 1240.97 127.364 1238.31 124.703C1235.64 122.043 1234.31 118.506 1234.31 114.094V90.7335C1234.31 85.8667 1235.68 82.0706 1238.4 79.3452C1241.19 76.5549 1245.02 75.1597 1249.89 75.1597H1269.36C1274.22 75.1597 1278.02 76.5549 1280.74 79.3452C1283.53 82.0706 1284.93 85.8667 1284.93 90.7335V108.74H1251.35V112.634C1251.35 113.607 1251.67 114.418 1252.32 115.067C1252.97 115.716 1253.78 116.041 1254.76 116.041C1261.18 116.041 1270.59 115.554 1282.98 114.581V126.748ZM1323.34 90.2468C1319.25 90.2468 1315.03 91.2202 1310.69 93.1669V127.721H1293.65V76.1331H1308.74L1309.71 82.4599C1315.29 77.5931 1321.13 75.1597 1327.23 75.1597H1331.61V90.2468H1323.34Z" fill="white"/>
<path d="M615.799 194.243H607.699V162.743H632.674V169.043H615.799V176.468H629.074V182.768H615.799V194.243ZM645.274 171.293V194.243H637.399V177.368H634.024V171.293H645.274ZM637.399 162.293H645.274V168.593H637.399V162.293ZM663.063 176.468C661.473 176.468 659.673 176.768 657.663 177.368V194.243H649.788V170.393H656.763L657.213 172.643C658.623 171.713 660.063 171.038 661.533 170.618C663.033 170.168 664.293 169.943 665.313 169.943H667.338C669.378 169.943 671.013 170.558 672.243 171.788C673.473 173.018 674.088 174.653 674.088 176.693V194.243H666.213V178.043C666.213 177.593 666.063 177.218 665.763 176.918C665.463 176.618 665.088 176.468 664.638 176.468H663.063ZM695.008 194.243L694.558 191.993C693.148 192.923 691.693 193.613 690.193 194.063C688.723 194.483 687.478 194.693 686.458 194.693H684.433C682.393 194.693 680.758 194.078 679.528 192.848C678.298 191.618 677.683 189.983 677.683 187.943V177.593C677.683 175.343 678.313 173.588 679.573 172.328C680.863 171.038 682.633 170.393 684.883 170.393H694.108V162.743H701.983V194.243H695.008ZM688.708 188.168C690.298 188.168 692.098 187.868 694.108 187.268V176.468H687.358C686.158 176.468 685.558 177.068 685.558 178.268V186.593C685.558 187.043 685.708 187.418 686.008 187.718C686.308 188.018 686.683 188.168 687.133 188.168H688.708ZM716.819 162.743H725.369L732.794 178.043L740.219 162.743H748.769L736.844 185.918V194.243H728.744V185.918L716.819 162.743ZM772.174 187.493C772.174 189.743 771.529 191.513 770.239 192.803C768.979 194.063 767.224 194.693 764.974 194.693H754.624C752.374 194.693 750.604 194.063 749.314 192.803C748.054 191.513 747.424 189.743 747.424 187.493V177.143C747.424 174.893 748.054 173.138 749.314 171.878C750.604 170.588 752.374 169.943 754.624 169.943H764.974C767.224 169.943 768.979 170.588 770.239 171.878C771.529 173.138 772.174 174.893 772.174 177.143V187.493ZM764.299 177.818C764.299 176.618 763.699 176.018 762.499 176.018H757.099C755.899 176.018 755.299 176.618 755.299 177.818V186.818C755.299 188.018 755.899 188.618 757.099 188.618H762.499C763.699 188.618 764.299 188.018 764.299 186.818V177.818ZM787.244 188.168C788.834 188.168 790.634 187.868 792.644 187.268V170.393H800.519V194.243H793.544L793.094 191.993C791.684 192.923 790.229 193.613 788.729 194.063C787.259 194.483 786.014 194.693 784.994 194.693H782.969C780.929 194.693 779.294 194.078 778.064 192.848C776.834 191.618 776.219 189.983 776.219 187.943V170.393H784.094V186.593C784.094 187.043 784.244 187.418 784.544 187.718C784.844 188.018 785.219 188.168 785.669 188.168H787.244ZM818.728 176.918C816.838 176.918 814.888 177.368 812.878 178.268V194.243H805.003V170.393H811.978L812.428 173.318C815.008 171.068 817.708 169.943 820.528 169.943H822.553V176.918H818.728ZM839.642 162.743H858.542C861.692 162.743 863.972 163.463 865.382 164.903C866.822 166.313 867.542 168.593 867.542 171.743V176.243C867.542 179.393 866.822 181.688 865.382 183.128C863.972 184.538 861.692 185.243 858.542 185.243H847.742V194.243H839.642V162.743ZM859.442 171.743C859.442 169.943 858.542 169.043 856.742 169.043H847.742V178.943H856.742C858.542 178.943 859.442 178.043 859.442 176.243V171.743ZM881.041 171.293V194.243H873.166V177.368H869.791V171.293H881.041ZM873.166 162.293H881.041V168.593H873.166V162.293ZM897.705 194.243C895.695 194.543 893.775 194.693 891.945 194.693C890.145 194.693 888.63 194.078 887.4 192.848C886.17 191.618 885.555 189.983 885.555 187.943V162.743H893.43V186.818C893.43 187.268 893.58 187.643 893.88 187.943C894.18 188.243 894.555 188.393 895.005 188.393H897.705V194.243ZM925.148 187.493C925.148 189.743 924.503 191.513 923.213 192.803C921.953 194.063 920.198 194.693 917.948 194.693H907.598C905.348 194.693 903.578 194.063 902.288 192.803C901.028 191.513 900.398 189.743 900.398 187.493V177.143C900.398 174.893 901.028 173.138 902.288 171.878C903.578 170.588 905.348 169.943 907.598 169.943H917.948C920.198 169.943 921.953 170.588 923.213 171.878C924.503 173.138 925.148 174.893 925.148 177.143V187.493ZM917.273 177.818C917.273 176.618 916.673 176.018 915.473 176.018H910.073C908.873 176.018 908.273 176.618 908.273 177.818V186.818C908.273 188.018 908.873 188.618 910.073 188.618H915.473C916.673 188.618 917.273 188.018 917.273 186.818V177.818ZM945.842 194.243C942.932 194.543 940.082 194.693 937.292 194.693C935.252 194.693 933.617 194.078 932.387 192.848C931.157 191.618 930.542 189.983 930.542 187.943V176.468H927.842V170.393H930.542L931.442 164.993H938.417V170.393H944.042V176.468H938.417V186.818C938.417 187.268 938.567 187.643 938.867 187.943C939.167 188.243 939.542 188.393 939.992 188.393H945.842V194.243ZM978.253 194.243H970.153V169.043H960.703V162.743H987.703V169.043H978.253V194.243ZM997.617 188.393C999.207 188.393 1001.01 188.093 1003.02 187.493V184.793H996.492C996.042 184.793 995.667 184.943 995.367 185.243C995.067 185.543 994.917 185.918 994.917 186.368V186.818C994.917 187.268 995.067 187.643 995.367 187.943C995.667 188.243 996.042 188.393 996.492 188.393H997.617ZM989.292 170.843C994.782 170.243 999.732 169.943 1004.14 169.943C1006.18 169.943 1007.82 170.558 1009.05 171.788C1010.28 173.018 1010.89 174.653 1010.89 176.693V194.243H1003.92L1003.47 191.993C1002.06 192.923 1000.6 193.613 999.102 194.063C997.632 194.483 996.387 194.693 995.367 194.693H993.792C991.752 194.693 990.117 194.078 988.887 192.848C987.657 191.618 987.042 189.983 987.042 187.943V185.918C987.042 183.878 987.657 182.243 988.887 181.013C990.117 179.783 991.752 179.168 993.792 179.168H1003.02V177.368C1003.02 176.918 1002.87 176.543 1002.57 176.243C1002.27 175.943 1001.89 175.793 1001.44 175.793C999.492 175.793 997.332 175.883 994.962 176.063C992.622 176.243 990.732 176.378 989.292 176.468V170.843ZM1022.81 184.793V194.243H1014.93V162.743H1022.81V178.718H1026.41L1031.36 170.393H1039.68L1032.93 181.868L1039.68 194.243H1031.36L1026.18 184.793H1022.81ZM1050.7 175.568C1049.5 175.568 1048.9 176.168 1048.9 177.368V179.843H1056.55V177.368C1056.55 176.168 1055.95 175.568 1054.75 175.568H1050.7ZM1063.52 193.793C1057.73 194.393 1052.48 194.693 1047.77 194.693C1045.73 194.693 1044.1 194.078 1042.87 192.848C1041.64 191.618 1041.02 189.983 1041.02 187.943V177.143C1041.02 174.893 1041.65 173.138 1042.91 171.878C1044.2 170.588 1045.97 169.943 1048.22 169.943H1057.22C1059.47 169.943 1061.23 170.588 1062.49 171.878C1063.78 173.138 1064.42 174.893 1064.42 177.143V185.468H1048.9V187.268C1048.9 187.718 1049.05 188.093 1049.35 188.393C1049.65 188.693 1050.02 188.843 1050.47 188.843C1053.44 188.843 1057.79 188.618 1063.52 188.168V193.793ZM1090.5 194.243H1082.4V162.743H1107.37V169.043H1090.5V176.468H1103.77V182.768H1090.5V194.243ZM1122.22 194.243C1120.21 194.543 1118.29 194.693 1116.46 194.693C1114.66 194.693 1113.15 194.078 1111.92 192.848C1110.69 191.618 1110.07 189.983 1110.07 187.943V162.743H1117.95V186.818C1117.95 187.268 1118.1 187.643 1118.4 187.943C1118.7 188.243 1119.07 188.393 1119.52 188.393H1122.22V194.243ZM1135.27 171.293V194.243H1127.39V177.368H1124.02V171.293H1135.27ZM1127.39 162.293H1135.27V168.593H1127.39V162.293ZM1155.3 192.443C1152.39 193.043 1149.84 193.343 1147.65 193.343H1146.08C1144.04 193.343 1142.4 192.728 1141.17 191.498C1139.94 190.268 1139.33 188.633 1139.33 186.593V177.593C1139.33 175.343 1139.96 173.588 1141.22 172.328C1142.51 171.038 1144.28 170.393 1146.53 170.393H1163.18V195.593C1163.18 197.633 1162.56 199.268 1161.33 200.498C1160.1 201.728 1158.47 202.343 1156.43 202.343C1151.72 202.343 1146.47 202.043 1140.68 201.443V195.593C1146.41 196.043 1150.76 196.268 1153.73 196.268C1154.18 196.268 1154.55 196.118 1154.85 195.818C1155.15 195.518 1155.3 195.143 1155.3 194.693V192.443ZM1149.9 187.268C1151.79 187.268 1153.59 187.118 1155.3 186.818V176.468H1149C1147.8 176.468 1147.2 177.068 1147.2 178.268V185.693C1147.2 186.143 1147.35 186.518 1147.65 186.818C1147.95 187.118 1148.33 187.268 1148.78 187.268H1149.9ZM1175.56 170.843C1178.47 170.243 1181.02 169.943 1183.21 169.943H1185.23C1187.27 169.943 1188.91 170.558 1190.14 171.788C1191.37 173.018 1191.98 174.653 1191.98 176.693V194.243H1184.11V177.593C1184.11 177.143 1183.96 176.768 1183.66 176.468C1183.36 176.168 1182.98 176.018 1182.53 176.018H1180.96C1179.82 176.018 1178.77 176.078 1177.81 176.198C1176.88 176.318 1176.13 176.408 1175.56 176.468V194.243H1167.68V162.743H1175.56V170.843ZM1212.68 194.243C1209.77 194.543 1206.92 194.693 1204.13 194.693C1202.09 194.693 1200.45 194.078 1199.22 192.848C1197.99 191.618 1197.38 189.983 1197.38 187.943V176.468H1194.68V170.393H1197.38L1198.28 164.993H1205.25V170.393H1210.88V176.468H1205.25V186.818C1205.25 187.268 1205.4 187.643 1205.7 187.943C1206 188.243 1206.38 188.393 1206.83 188.393H1212.68V194.243Z" fill="white"/>
<path d="M45.8342 153.257C36.7342 151.977 16.8342 149.557 21.7742 134.887C24.1542 127.817 32.7442 120.617 39.3642 116.327C49.6442 109.677 60.4942 104.227 71.9142 99.9865C94.7242 91.5165 118.435 86.1864 142.515 85.8764C148.775 85.8064 155.275 86.7065 162.015 88.5865C172.585 91.5465 177.955 98.8865 171.185 108.897C167.345 114.577 162.395 119.187 156.325 122.727C156.295 122.747 156.285 122.767 156.295 122.807C156.325 122.887 156.335 122.957 156.335 123.037C156.335 123.167 156.385 123.207 156.505 123.147C166.905 117.677 196.995 98.3965 188.495 82.8865C181.785 70.6365 154.335 69.5665 143.075 70.2965C111.855 72.3065 81.9642 79.4865 53.3942 91.8265C37.1642 98.8465 22.2442 107.107 9.44424 119.247C6.27424 122.247 3.87424 125.827 2.22424 129.977C-2.04576 140.727 5.74423 147.627 15.0042 150.457C24.7442 153.427 34.9442 154.557 45.6142 153.847C45.8942 153.827 46.0442 153.707 46.0442 153.487C46.0242 153.367 45.9442 153.277 45.8342 153.257Z" stroke="#CFCECD" stroke-width="2"/>
<path d="M291.596 84.1349C282.636 83.9149 258.406 80.8349 263.906 65.9549C267.696 55.6749 279.926 47.3249 289.706 42.0649C315.546 28.1749 343.016 19.8749 372.096 17.1649C382.996 16.1549 407.926 15.5149 414.936 26.2949C420.256 34.4749 409.926 45.0649 403.456 49.8949C403.336 49.9849 403.286 50.1349 403.326 50.2849C403.346 50.3649 403.376 50.4549 403.396 50.5349C403.446 50.6949 403.616 50.7849 403.776 50.7449C403.796 50.7349 403.816 50.7349 403.826 50.7249C413.486 45.5349 428.456 34.1549 431.536 23.1249C433.956 14.4749 428.206 8.76491 420.766 5.60491C410.156 1.10491 396.376 0.524918 384.156 1.27492C362.096 2.61492 340.586 6.68492 319.616 13.4649C299.756 19.8949 281.256 28.1249 263.856 39.7649C255.416 45.4049 238.086 59.9749 244.366 71.9849C250.966 84.6249 278.936 85.4049 290.426 84.5449C290.436 84.5449 290.646 84.5649 291.036 84.5949C291.266 84.6149 291.486 84.5249 291.686 84.3449C291.736 84.3049 291.736 84.2249 291.696 84.1749C291.666 84.1549 291.626 84.1349 291.596 84.1349Z" stroke="#CFCECD" stroke-width="2"/>
<path d="M201.984 220.483C203.154 220.613 203.954 220.933 204.364 221.453C214.434 234.163 227.124 241.403 242.434 243.163C271.814 246.563 298.474 225.603 302.424 196.353C302.644 194.723 302.914 193.393 303.234 192.363" stroke="#AECFE9" stroke-width="2"/>
<path d="M303.235 192.364C321.635 173.614 326.865 145.974 305.105 127.424C304.905 127.254 304.805 127.014 304.815 126.764C305.365 115.904 312.065 107.664 319.135 99.2638C324.785 92.5538 330.455 85.8338 336.155 79.1038C336.345 78.8838 336.555 78.8639 336.775 79.0539C353.535 93.6939 358.105 74.4138 358.805 62.2538C359.135 56.6038 358.565 52.0638 357.105 48.6338C348.775 29.0538 312.815 42.7438 326.865 66.4138C327.055 66.7338 327.025 67.1338 326.785 67.4138C317.685 77.9938 308.535 88.2439 299.335 98.1439C291.495 106.584 285.385 110.194 274.365 112.604C272.515 113.004 270.455 113.124 268.155 112.944C239.825 110.804 214.205 118.154 191.285 134.994C189.455 136.334 187.685 137.294 185.955 137.884C179.425 140.094 171.195 142.144 164.445 140.564C149.775 137.134 134.075 132.594 117.335 126.954C117.075 126.864 116.905 126.614 116.915 126.344C117.315 109.014 98.6541 103.104 86.9441 113.834C75.9041 123.954 84.7141 137.054 92.5841 145.954C95.1041 148.804 97.9341 151.024 101.055 152.614C108.825 156.544 113.365 149.384 115.155 142.534C115.245 142.194 115.455 142.074 115.785 142.184C126.365 145.474 138.195 149.424 151.295 154.004C157.915 156.324 163.335 160.244 167.575 165.784C167.745 166.014 167.795 166.314 167.715 166.584C159.055 192.654 177.635 214.374 201.985 220.484" stroke="#B3DAF3" stroke-width="2"/>
<path d="M303.235 192.367C303.155 177.827 299.225 165.487 291.445 155.357C290.245 153.797 287.845 152.177 286.165 150.187C283.925 147.527 281.335 145.247 278.375 143.367C250.505 125.617 214.125 135.427 199.405 165.077C195.275 173.387 194.485 182.417 194.105 191.537C193.975 194.657 194.255 197.557 194.945 200.247C196.615 206.747 199.195 212.887 202.685 218.667C202.845 218.937 202.845 219.207 202.665 219.467L201.975 220.477" stroke="#64AADD" stroke-width="2"/>
<path d="M421.295 92.3349C415.165 83.4549 394.595 84.1349 385.305 85.0349C363.555 87.1349 342.615 93.0749 322.495 102.845C319.615 104.255 318.765 105.975 316.955 107.945C312.715 112.605 309.945 118.025 308.645 124.205C308.565 124.585 308.575 124.945 308.675 125.275C308.795 125.645 308.915 125.975 309.035 126.275C309.165 126.585 309.525 126.725 309.835 126.595C309.945 126.545 310.035 126.465 310.105 126.375C314.945 119.005 322.955 113.955 330.715 110.125C348.905 101.125 368.115 96.1249 388.355 95.1249C394.695 94.8049 406.045 95.7449 410.455 100.665C415.845 106.685 407.375 114.875 402.305 118.545C402.265 118.575 402.255 118.605 402.285 118.645C402.305 118.665 402.315 118.685 402.325 118.705C402.365 118.785 402.425 118.815 402.495 118.775C409.785 115.005 428.075 102.175 421.295 92.3349Z" stroke="#CFCECD" stroke-width="2"/>
<path d="M80.225 210.553C74.405 209.943 61.365 207.383 64.495 198.263C66.825 191.483 76.955 184.833 83.245 181.583C97.855 174.013 113.325 168.903 129.235 166.433C139.485 164.843 152.755 163.863 162.515 168.313C163.025 168.543 163.625 168.313 163.855 167.813C164.015 167.463 163.965 167.053 163.715 166.753C158.875 160.873 151.805 157.573 144.605 155.643C142.745 155.143 140.735 155.003 138.585 155.243C120.915 157.163 103.835 161.513 87.355 168.293C77.315 172.413 50.505 185.723 50.545 198.963C50.585 210.353 72.615 211.623 80.215 211.013C80.345 211.013 80.445 210.913 80.445 210.793C80.445 210.653 80.345 210.553 80.225 210.553Z" stroke="#CFCECD" stroke-width="2"/>
<path d="M132.525 195.005C131.955 189.965 131.395 185.765 127.125 182.605C121.255 178.255 111.985 179.845 107.195 185.215C103.135 189.745 102.825 195.095 106.255 201.255C109.245 206.615 115.555 215.045 121.665 216.245C127.625 217.425 129.705 211.645 131.185 206.595C131.265 206.325 131.485 206.135 131.765 206.085C141.885 204.555 152.035 203.255 162.225 202.205C164.185 201.995 166.245 202.275 168.315 202.395C168.775 202.425 168.875 202.235 168.625 201.855C166.335 198.445 164.645 194.755 163.555 190.775C163.495 190.535 163.255 190.385 163.005 190.425L133.085 195.435C132.755 195.485 132.565 195.345 132.525 195.005Z" stroke="#AECFE9" stroke-width="2"/>
<path d="M349.795 133.434L321.745 144.994C321.445 145.124 321.345 145.344 321.425 145.654C322.485 149.584 322.995 153.594 322.955 157.674C322.945 157.884 323.115 158.064 323.325 158.074C323.425 158.074 323.515 158.044 323.595 157.974C324.915 156.864 326.375 155.904 327.985 155.094C337.315 150.394 346.795 145.944 356.425 141.744C356.695 141.634 357.005 141.684 357.205 141.894C374.995 159.794 378.425 124.624 373.465 116.344C365.305 102.724 338.615 114.274 350.045 132.694C350.235 133.034 350.155 133.274 349.795 133.434Z" stroke="#AECFE9" stroke-width="2"/>
<path d="M286.756 191.195C281.246 171.935 261.166 160.785 241.906 166.295C222.646 171.805 211.496 191.885 217.006 211.145C222.516 230.405 242.596 241.555 261.856 236.045C281.126 230.535 292.276 210.455 286.756 191.195Z" stroke="#AECFE9" stroke-width="2"/>
<path d="M280.474 192.964C275.954 177.174 259.494 168.044 243.714 172.554C227.924 177.074 218.794 193.534 223.304 209.314C227.824 225.104 244.284 234.234 260.064 229.724C275.854 225.204 284.994 208.744 280.474 192.964Z" stroke="#CFCECD" stroke-width="2"/>
<path d="M266.605 178.816C265.765 175.886 262.715 174.196 259.785 175.036C256.855 175.876 255.165 178.926 256.005 181.856C256.845 184.786 259.895 186.476 262.825 185.636C265.755 184.796 267.445 181.746 266.605 178.816Z" stroke="#CFCECD" stroke-width="2"/>
<path d="M267.493 196.713C265.023 188.083 256.023 183.093 247.393 185.553C238.763 188.023 233.773 197.023 236.233 205.653C238.703 214.283 247.703 219.273 256.333 216.813C264.963 214.343 269.963 205.343 267.493 196.713Z" stroke="#CFCECD" stroke-width="2"/>
<path d="M45.8346 153.255C45.9446 153.265 46.0246 153.365 46.0246 153.475C46.0246 153.695 45.8746 153.815 45.5946 153.835C34.9246 154.555 24.7246 153.425 14.9846 150.445C5.72458 147.615 -2.07542 140.715 2.20458 129.965C3.85458 125.805 6.26458 122.235 9.42458 119.235C22.2246 107.095 37.1446 98.8348 53.3746 91.8148C81.9446 79.4748 111.845 72.2948 143.055 70.2848C154.305 69.5548 181.765 70.6248 188.475 82.8748C196.975 98.3848 166.885 117.665 156.485 123.135C156.365 123.195 156.315 123.165 156.315 123.025C156.315 122.955 156.305 122.875 156.275 122.795C156.265 122.755 156.275 122.725 156.305 122.715C162.375 119.175 167.335 114.565 171.165 108.885C177.935 98.8748 172.575 91.5349 161.995 88.5749C155.265 86.6949 148.765 85.7949 142.495 85.8649C118.415 86.1749 94.7046 91.5048 71.8946 99.9748C60.4746 104.215 49.6246 109.665 39.3446 116.315C32.7246 120.605 24.1346 127.805 21.7546 134.875C16.8346 149.555 36.7346 151.975 45.8346 153.255Z" fill="white"/>
<path d="M291.594 84.1337C291.664 84.1337 291.714 84.1937 291.714 84.2537C291.714 84.2837 291.694 84.3237 291.674 84.3437C291.474 84.5237 291.264 84.6137 291.024 84.5937C290.624 84.5637 290.424 84.5437 290.414 84.5437C278.924 85.4137 250.954 84.6237 244.354 71.9837C238.074 59.9737 255.404 45.4037 263.844 39.7637C281.244 28.1237 299.744 19.8937 319.604 13.4637C340.574 6.6737 362.084 2.6137 384.144 1.2737C396.374 0.523697 410.154 1.11368 420.754 5.60368C428.204 8.76368 433.954 14.4637 431.524 23.1237C428.444 34.1537 413.474 45.5437 403.814 50.7237C403.664 50.8037 403.484 50.7437 403.404 50.5937C403.394 50.5737 403.384 50.5537 403.384 50.5437C403.364 50.4637 403.334 50.3737 403.314 50.2937C403.274 50.1437 403.324 49.9937 403.444 49.9037C409.914 45.0637 420.234 34.4837 414.924 26.3037C407.924 15.5237 382.984 16.1537 372.084 17.1737C343.004 19.8837 315.544 28.1837 289.694 42.0737C279.914 47.3337 267.694 55.6837 263.894 65.9637C258.404 80.8337 282.634 83.9137 291.594 84.1337Z" fill="white"/>
<path d="M303.236 192.367C303.156 177.827 299.226 165.487 291.446 155.357C290.246 153.797 287.846 152.177 286.166 150.187C283.926 147.527 281.336 145.247 278.376 143.367C250.506 125.617 214.126 135.427 199.406 165.077C195.276 173.387 194.486 182.417 194.106 191.537C193.976 194.657 194.256 197.557 194.946 200.247C196.616 206.747 199.196 212.887 202.686 218.667C202.846 218.937 202.846 219.207 202.666 219.467L201.976 220.477C177.636 214.367 159.046 192.647 167.706 166.577C167.796 166.307 167.746 166.007 167.566 165.777C163.326 160.247 157.896 156.317 151.286 153.997C138.196 149.407 126.356 145.467 115.776 142.177C115.446 142.077 115.236 142.187 115.146 142.527C113.356 149.377 108.806 156.537 101.046 152.607C97.9152 151.017 95.0952 148.797 92.5752 145.947C84.6952 137.037 75.8852 123.947 86.9352 113.827C98.6452 103.087 117.306 109.007 116.906 126.337C116.896 126.617 117.066 126.867 117.326 126.947C134.066 132.587 149.776 137.127 164.436 140.557C171.186 142.137 179.416 140.087 185.946 137.877C187.676 137.297 189.446 136.327 191.276 134.987C214.186 118.147 239.816 110.797 268.146 112.937C270.436 113.107 272.506 112.997 274.356 112.597C285.386 110.187 291.486 106.577 299.326 98.1366C308.526 88.2266 317.686 77.9866 326.776 67.4066C327.016 67.1266 327.056 66.7166 326.856 66.4066C312.806 42.7366 348.766 29.0366 357.096 48.6266C358.556 52.0666 359.126 56.6066 358.796 62.2466C358.096 74.4066 353.526 93.6866 336.766 79.0466C336.546 78.8566 336.336 78.8766 336.146 79.0966C330.446 85.8266 324.776 92.5466 319.126 99.2566C312.056 107.657 305.356 115.887 304.806 126.757C304.796 127.007 304.896 127.257 305.096 127.417C326.866 145.977 321.646 173.617 303.236 192.367Z" fill="#3196D3"/>
<path d="M385.303 85.0466C394.593 84.1466 415.163 83.4666 421.293 92.3466C428.073 102.187 409.783 115.017 402.483 118.787C402.413 118.827 402.363 118.797 402.313 118.717C402.303 118.697 402.293 118.677 402.273 118.657C402.243 118.617 402.253 118.587 402.293 118.557C407.373 114.887 415.833 106.697 410.443 100.677C406.033 95.7566 394.683 94.8266 388.343 95.1366C368.103 96.1366 348.893 101.137 330.703 110.137C322.953 113.967 314.943 119.007 310.093 126.387C309.903 126.667 309.533 126.747 309.243 126.557C309.143 126.487 309.063 126.397 309.023 126.287C308.903 125.997 308.783 125.667 308.663 125.287C308.563 124.957 308.553 124.597 308.633 124.217C309.933 118.037 312.713 112.617 316.943 107.957C318.743 105.977 319.593 104.257 322.483 102.857C342.613 93.0766 363.543 87.1366 385.303 85.0466Z" fill="white"/>
<path d="M80.225 210.555C80.355 210.555 80.455 210.655 80.445 210.785C80.445 210.915 80.345 211.015 80.215 211.005C72.615 211.615 50.575 210.335 50.545 198.955C50.505 185.715 77.315 172.415 87.355 168.285C103.834 161.505 120.914 157.155 138.584 155.235C140.734 155.005 142.744 155.135 144.604 155.635C151.804 157.565 158.864 160.865 163.714 166.745C164.074 167.165 164.014 167.805 163.584 168.155C163.284 168.405 162.874 168.455 162.514 168.295C152.754 163.845 139.494 164.825 129.234 166.415C113.314 168.895 97.855 174.005 83.245 181.565C76.955 184.815 66.825 191.465 64.495 198.245C61.355 207.385 74.405 209.945 80.225 210.555Z" fill="white"/>
<path d="M303.235 192.367C302.915 193.397 302.645 194.727 302.425 196.357C298.475 225.607 271.815 246.567 242.435 243.167C227.125 241.397 214.435 234.167 204.365 221.457C203.955 220.937 203.155 220.617 201.985 220.487L202.675 219.477C202.845 219.217 202.855 218.947 202.695 218.677C199.205 212.897 196.625 206.757 194.955 200.257C194.265 197.567 193.985 194.667 194.115 191.547C194.495 182.427 195.285 173.397 199.415 165.087C214.135 135.427 250.515 125.627 278.385 143.377C281.335 145.257 283.935 147.537 286.175 150.197C287.855 152.187 290.255 153.807 291.455 155.367C299.225 165.487 303.155 177.827 303.235 192.367ZM286.755 191.197C281.245 171.937 261.165 160.787 241.905 166.297C222.645 171.807 211.495 191.887 217.005 211.147C222.515 230.407 242.595 241.557 261.855 236.047C281.125 230.537 292.275 210.457 286.755 191.197Z" fill="#0B75AC"/>
<path d="M133.085 195.427L163.005 190.417C163.255 190.377 163.485 190.527 163.555 190.767C164.645 194.747 166.335 198.437 168.625 201.847C168.885 202.237 168.775 202.417 168.315 202.387C166.245 202.257 164.195 201.987 162.225 202.197C152.035 203.247 141.885 204.537 131.765 206.077C131.485 206.127 131.265 206.317 131.185 206.587C129.705 211.627 127.635 217.417 121.665 216.237C115.555 215.037 109.235 206.607 106.255 201.247C102.825 195.087 103.135 189.737 107.195 185.207C111.995 179.837 121.255 178.257 127.125 182.597C131.395 185.757 131.955 189.967 132.525 194.997C132.565 195.347 132.755 195.487 133.085 195.427Z" fill="#0B75AC"/>
<path d="M349.795 133.434C350.155 133.284 350.235 133.034 350.035 132.704C338.605 114.274 365.285 102.734 373.455 116.354C378.415 124.634 374.985 159.804 357.195 141.904C356.995 141.704 356.685 141.644 356.415 141.754C346.785 145.964 337.305 150.414 327.975 155.104C326.375 155.914 324.915 156.874 323.585 157.984C323.425 158.124 323.185 158.114 323.045 157.954C322.975 157.884 322.945 157.784 322.945 157.684C322.985 153.604 322.475 149.594 321.415 145.664C321.335 145.354 321.435 145.124 321.735 145.004L349.795 133.434Z" fill="#0B75AC"/>
<path d="M286.756 191.196C292.266 210.456 281.116 230.536 261.856 236.046C242.596 241.556 222.516 230.406 217.006 211.146C211.496 191.886 222.646 171.806 241.906 166.296C261.166 160.786 281.246 171.926 286.756 191.196ZM280.476 192.966C275.956 177.176 259.496 168.046 243.716 172.556C227.926 177.076 218.796 193.536 223.306 209.316C227.826 225.106 244.286 234.236 260.066 229.726C275.856 225.206 284.996 208.746 280.476 192.966Z" fill="white"/>
<path d="M280.474 192.964C284.994 208.754 275.854 225.214 260.064 229.724C244.274 234.244 227.814 225.104 223.304 209.314C218.784 193.524 227.924 177.064 243.714 172.554C259.504 168.034 275.964 177.174 280.474 192.964ZM266.604 178.814C265.764 175.884 262.714 174.194 259.784 175.034C256.854 175.874 255.164 178.924 256.004 181.854C256.844 184.784 259.894 186.474 262.824 185.634C265.754 184.794 267.444 181.744 266.604 178.814ZM267.494 196.714C265.024 188.084 256.024 183.094 247.394 185.554C238.764 188.024 233.774 197.024 236.234 205.654C238.704 214.284 247.704 219.274 256.334 216.814C264.964 214.344 269.964 205.344 267.494 196.714Z" fill="#414B4D"/>
<path d="M261.305 185.844C264.349 185.844 266.815 183.377 266.815 180.334C266.815 177.291 264.349 174.824 261.305 174.824C258.262 174.824 255.795 177.291 255.795 180.334C255.795 183.377 258.262 185.844 261.305 185.844Z" fill="white"/>
<path d="M251.865 217.434C260.839 217.434 268.115 210.159 268.115 201.184C268.115 192.209 260.839 184.934 251.865 184.934C242.89 184.934 235.615 192.209 235.615 201.184C235.615 210.159 242.89 217.434 251.865 217.434Z" fill="white"/>
</svg>
