
<svg width="45" height="45" viewBox="0 0 45 45" fill="none" xmlns="http://www.w3.org/2000/svg">
<rect width="45" height="45" rx="5" fill="white"/>
<path d="M31.1451 29.0897C31.1363 27.6391 30.7447 26.4081 29.9682 25.3988C29.8479 25.2433 29.6086 25.0823 29.4409 24.8837C29.2181 24.6179 28.9589 24.3918 28.6644 24.2031C25.8835 22.4327 22.2556 23.4111 20.7874 26.3684C20.376 27.1979 20.2966 28.098 20.2591 29.008C20.2458 29.3191 20.2734 29.6081 20.3429 29.8761C20.5095 30.5247 20.7665 31.1369 21.115 31.7138C21.1316 31.7414 21.1305 31.7679 21.1139 31.7943L21.0444 31.8947" stroke="#64AADD" stroke-width="2"/>
<path d="M29.5027 28.9721C28.9534 27.0506 26.9503 25.9387 25.0287 26.488C23.1072 27.0373 21.9953 29.0405 22.5446 30.962C23.094 32.8835 25.0971 33.9954 27.0186 33.4461C28.9402 32.8968 30.052 30.8936 29.5027 28.9721Z" stroke="#ADCFEA" stroke-width="2"/>
<path d="M28.8738 29.1506C28.4237 27.5754 26.7813 26.6643 25.2072 27.1154C23.6321 27.5655 22.7209 29.2079 23.1721 30.782C23.6232 32.3561 25.2646 33.2683 26.8386 32.8171C28.4127 32.3671 29.3238 30.7246 28.8738 29.1506Z" stroke="#CECECD" stroke-width="2"/>
<path d="M27.4914 27.7425C27.4076 27.4502 27.1032 27.2814 26.8108 27.3652C26.5185 27.4491 26.3498 27.7535 26.4336 28.0458C26.5174 28.3381 26.8219 28.5069 27.1142 28.4231C27.4065 28.3392 27.5753 28.0348 27.4914 27.7425Z" stroke="#CECECD" stroke-width="2"/>
<path d="M27.5804 29.5273C27.3344 28.667 26.4365 28.1684 25.5762 28.4144C24.7158 28.6603 24.2172 29.5582 24.4632 30.4186C24.7092 31.279 25.6071 31.7776 26.4674 31.5316C27.3278 31.2856 27.8264 30.3877 27.5804 29.5273Z" stroke="#CECECD" stroke-width="2"/>
<path d="M5.47231 25.191C5.48334 25.1921 5.49106 25.2021 5.49106 25.2131C5.49106 25.2352 5.47672 25.2473 5.44804 25.2495C4.38359 25.3212 3.36658 25.2087 2.39478 24.912C1.47153 24.6296 0.693872 23.9413 1.11965 22.8691C1.28401 22.4544 1.52448 22.0981 1.83995 21.7991C3.11619 20.588 4.60531 19.764 6.22349 19.0636C9.07379 17.8326 12.0553 17.1167 15.1693 16.9159C16.2911 16.8431 19.03 16.9501 19.6995 18.1712C20.5478 19.7177 17.5464 21.6414 16.5095 22.1863C16.4985 22.1929 16.4929 22.1896 16.4929 22.1753C16.4929 22.1676 16.4918 22.1609 16.4896 22.1532C16.4885 22.1488 16.4896 22.1466 16.4929 22.1455C17.0985 21.7925 17.5927 21.3326 17.9754 20.7667C18.6516 19.7684 18.1155 19.036 17.061 18.7415C16.3893 18.554 15.7418 18.4635 15.1163 18.4712C12.715 18.5021 10.35 19.0338 8.07441 19.8787C6.93496 20.3012 5.85286 20.845 4.82812 21.5079C4.16739 21.9359 3.31032 22.654 3.07317 23.36C2.579 24.8215 4.56339 25.0631 5.47231 25.191Z" fill="#3A3A3A"/>
<path d="M29.9854 18.2948C29.992 18.2948 29.9975 18.3004 29.9975 18.307C29.9975 18.3103 29.9964 18.3136 29.9931 18.3158C29.9732 18.3346 29.9523 18.3423 29.9291 18.3401C29.8894 18.3368 29.8695 18.3357 29.8684 18.3346C28.7224 18.4206 25.9327 18.3423 25.2742 17.0815C24.6488 15.8836 26.3762 14.4297 27.2189 13.8672C28.9551 12.7057 30.8005 11.885 32.7805 11.2441C34.8719 10.5668 37.0184 10.162 39.2179 10.0274C40.4379 9.95244 41.8123 10.0109 42.8701 10.4598C43.6125 10.7753 44.1872 11.3445 43.9445 12.2071C43.6379 13.3079 42.1443 14.443 41.1803 14.9603C41.1648 14.968 41.1472 14.9625 41.1395 14.9471C41.1384 14.9449 41.1383 14.9438 41.1372 14.9416C41.135 14.9327 41.1328 14.925 41.1295 14.9162C41.1251 14.9018 41.1306 14.8864 41.1428 14.8776C41.7881 14.3955 42.8183 13.3388 42.2877 12.5237C41.5895 11.4482 39.1021 11.5122 38.0145 11.6125C35.1135 11.8828 32.3746 12.7112 29.7967 14.0966C28.8216 14.6206 27.6017 15.4545 27.2233 16.4792C26.6751 17.9661 29.0919 18.2728 29.9854 18.2948Z" fill="#3A3A3A"/>
<path d="M31.1459 29.0964C31.1371 27.6459 30.7455 26.4148 29.969 25.4056C29.8487 25.25 29.6094 25.089 29.4417 24.8904C29.2189 24.6246 28.9597 24.3985 28.6651 24.2098C25.8843 22.4394 22.2564 23.4178 20.7882 26.3751C20.3768 27.2046 20.2974 28.1047 20.2599 29.0148C20.2466 29.3258 20.2742 29.6148 20.3437 29.8829C20.5102 30.5315 20.7673 31.1436 21.1158 31.7205C21.1324 31.7481 21.1313 31.7746 21.1147 31.8011L21.0452 31.9014C18.6174 31.2915 16.7632 29.1262 17.6269 26.5252C17.6357 26.4987 17.6302 26.4689 17.6136 26.4457C17.1912 25.8942 16.6496 25.5026 15.9899 25.271C14.6839 24.8132 13.5036 24.4205 12.448 24.0918C12.4149 24.0819 12.394 24.0929 12.3851 24.1271C12.2065 24.8099 11.7531 25.5247 10.9788 25.132C10.6666 24.9743 10.3853 24.7525 10.1338 24.468C9.34843 23.5789 8.4693 22.2729 9.57125 21.2636C10.7394 20.1925 12.6002 20.7826 12.5605 22.5111C12.5594 22.5387 12.5771 22.5641 12.6024 22.5729C14.2725 23.1355 15.8388 23.5877 17.3015 23.9308C17.9743 24.0885 18.7961 23.8844 19.4469 23.6638C19.619 23.6054 19.7966 23.5094 19.9786 23.3759C22.2641 21.696 24.8199 20.9624 27.6459 21.1764C27.8742 21.1941 28.0816 21.182 28.2647 21.1422C29.3645 20.9018 29.9734 20.5422 30.7554 19.7006C31.6732 18.7122 32.5865 17.6908 33.4932 16.6352C33.5175 16.6076 33.5208 16.5668 33.502 16.5348C32.1012 14.1742 35.6872 12.8076 36.5178 14.7611C36.6634 15.1041 36.7197 15.5564 36.6877 16.12C36.6182 17.3334 36.1626 19.256 34.4904 17.7956C34.4683 17.7768 34.4474 17.7779 34.4286 17.8011C33.8605 18.4728 33.2947 19.1424 32.731 19.812C32.0262 20.6503 31.3577 21.471 31.3025 22.5553C31.3014 22.5806 31.3114 22.6049 31.3312 22.6214C33.502 24.4691 32.9814 27.2267 31.1459 29.0964Z" fill="url(#paint0_linear_3595_70)"/>
<path d="M39.3303 18.3895C40.2569 18.3002 42.3096 18.2318 42.9196 19.1176C43.5958 20.0993 41.7713 21.3788 41.0433 21.755C41.0367 21.7583 41.0312 21.7561 41.0268 21.7483C41.0257 21.7461 41.0246 21.7439 41.0235 21.7417C41.0202 21.7373 41.0213 21.734 41.0246 21.7318C41.5309 21.3656 42.3747 20.5493 41.8375 19.9481C41.3974 19.4573 40.2657 19.3646 39.6325 19.3955C37.6139 19.4948 35.6968 19.9945 33.8834 20.8924C33.1102 21.2751 32.3104 21.7781 31.8284 22.5128C31.8096 22.5403 31.7721 22.5492 31.7435 22.5304C31.7335 22.5238 31.7258 22.515 31.7214 22.5039C31.7093 22.4753 31.6971 22.4422 31.6861 22.4047C31.6762 22.3716 31.6751 22.3363 31.6828 22.2977C31.813 21.6811 32.0898 21.1406 32.5123 20.6751C32.6921 20.4776 32.777 20.3055 33.0649 20.1655C35.0714 19.1915 37.1595 18.5991 39.3303 18.3895Z" fill="#3A3A3A"/>
<path d="M8.90201 30.9074C8.91414 30.9074 8.92407 30.9174 8.92407 30.9306C8.92407 30.9427 8.91414 30.9527 8.90091 30.9527C8.142 31.0133 5.94472 30.8865 5.94141 29.7503C5.937 28.43 8.61191 27.103 9.61238 26.6916C11.2559 26.0154 12.9602 25.5819 14.7228 25.39C14.9379 25.3668 15.1376 25.38 15.324 25.4297C16.0421 25.6227 16.7469 25.9514 17.2301 26.5382C17.2654 26.5802 17.2599 26.6441 17.2168 26.6794C17.1871 26.7037 17.1451 26.7092 17.111 26.6938C16.1381 26.2503 14.8144 26.3474 13.7919 26.5063C12.2046 26.7533 10.6625 27.263 9.20425 28.0174C8.57661 28.3417 7.56732 29.0047 7.33457 29.6808C7.0202 30.5909 8.3218 30.8457 8.90201 30.9074Z" fill="#3A3A3A"/>
<path d="M31.1479 29.0865C31.1159 29.1891 31.0894 29.3214 31.0673 29.4847C30.6724 32.4023 28.0141 34.4926 25.0833 34.1539C23.5566 33.9774 22.2903 33.256 21.2854 31.9886C21.2446 31.9368 21.1652 31.9048 21.0483 31.8916L21.1178 31.7912C21.1354 31.7647 21.1354 31.7382 21.1189 31.7107C20.7714 31.1338 20.5133 30.5216 20.3467 29.873C20.2784 29.6049 20.2497 29.3148 20.2629 29.0049C20.3004 28.0949 20.3798 27.1948 20.7913 26.3653C22.2594 23.4069 25.8874 22.4285 28.6682 24.2C28.9627 24.3875 29.2219 24.6147 29.4447 24.8805C29.6124 25.0791 29.8518 25.2401 29.972 25.3957C30.7475 26.405 31.139 27.636 31.1479 29.0865ZM29.5043 28.9696C28.955 27.048 26.9518 25.9362 25.0303 26.4855C23.1088 27.0348 21.9969 29.038 22.5462 30.9595C23.0956 32.881 25.0987 33.9929 27.0202 33.4436C28.9418 32.8942 30.0536 30.8911 29.5043 28.9696Z" fill="url(#paint1_linear_3595_70)"/>
<path d="M14.175 29.4004L17.1588 28.9007C17.1831 28.8974 17.2073 28.9118 17.2129 28.936C17.3221 29.3331 17.4897 29.7015 17.7181 30.0413C17.7434 30.0799 17.7335 30.0975 17.6872 30.0953C17.4809 30.0832 17.2757 30.0556 17.0794 30.0766C16.0635 30.1814 15.0498 30.3104 14.0416 30.4637C14.014 30.4682 13.9919 30.488 13.9842 30.5145C13.8364 31.0175 13.6301 31.5944 13.0345 31.4764C12.4245 31.3572 11.7947 30.5156 11.4968 29.9806C11.1549 29.3662 11.1858 28.8323 11.5906 28.3812C12.0693 27.8462 12.9937 27.6874 13.5794 28.1209C14.0052 28.4363 14.0614 28.8555 14.1177 29.3585C14.1221 29.3927 14.1408 29.4059 14.175 29.4004Z" fill="url(#paint2_linear_3595_70)"/>
<path d="M35.7896 23.2121C35.826 23.1967 35.8337 23.1724 35.8127 23.1393C34.6722 21.3016 37.3339 20.1501 38.1479 21.5079C38.6432 22.3341 38.3012 25.8418 36.5264 24.056C36.5066 24.035 36.4757 24.0295 36.4492 24.0405C35.4895 24.4597 34.5431 24.9042 33.6121 25.373C33.4522 25.4535 33.3066 25.5495 33.1742 25.6598C33.1588 25.6742 33.1345 25.672 33.1202 25.6565C33.1136 25.6488 33.1103 25.64 33.1103 25.63C33.1147 25.223 33.0639 24.8226 32.958 24.431C32.9492 24.4001 32.9602 24.3781 32.99 24.3648L35.7896 23.2121Z" fill="#01A6FF"/>
<path d="M29.5027 28.9721C30.052 30.8936 28.9402 32.8968 27.0186 33.4461C25.0971 33.9954 23.094 32.8835 22.5446 30.962C21.9953 29.0405 23.1072 27.0373 25.0287 26.488C26.9503 25.9387 28.9523 27.0506 29.5027 28.9721ZM28.8762 29.1486C28.4261 27.5734 26.7837 26.6623 25.2096 27.1134C23.6345 27.5635 22.7233 29.2059 23.1745 30.78C23.6256 32.3541 25.267 33.2663 26.8411 32.8151C28.4151 32.3651 29.3262 30.7226 28.8762 29.1486Z" fill="white"/>
<path d="M28.8772 29.1506C29.3273 30.7257 28.4161 32.3671 26.8421 32.8171C25.2669 33.2672 23.6256 32.3561 23.1755 30.782C22.7255 29.2079 23.6366 27.5655 25.2107 27.1154C26.7847 26.6643 28.4261 27.5754 28.8772 29.1506ZM27.4929 27.7398C27.409 27.4475 27.1046 27.2787 26.8123 27.3625C26.52 27.4464 26.3512 27.7508 26.435 28.0431C26.5189 28.3354 26.8233 28.5042 27.1156 28.4204C27.4079 28.3365 27.5767 28.0321 27.4929 27.7398ZM27.5822 29.5245C27.3362 28.6641 26.4384 28.1656 25.578 28.4115C24.7176 28.6575 24.219 29.5554 24.465 30.4158C24.711 31.2762 25.6089 31.7748 26.4692 31.5288C27.3296 31.2828 27.8282 30.3849 27.5822 29.5245Z" fill="#404A4C"/>
<path d="M26.9625 28.4407C27.2665 28.4407 27.513 28.1943 27.513 27.8903C27.513 27.5863 27.2665 27.3398 26.9625 27.3398C26.6585 27.3398 26.4121 27.5863 26.4121 27.8903C26.4121 28.1943 26.6585 28.4407 26.9625 28.4407Z" fill="white"/>
<path d="M26.0238 31.5906C26.9194 31.5906 27.6453 30.8647 27.6453 29.9691C27.6453 29.0736 26.9194 28.3477 26.0238 28.3477C25.1283 28.3477 24.4023 29.0736 24.4023 29.9691C24.4023 30.8647 25.1283 31.5906 26.0238 31.5906Z" fill="white"/>
<defs>
<linearGradient id="paint0_linear_3595_70" x1="22.8745" y1="13.8281" x2="22.8745" y2="31.9014" gradientUnits="userSpaceOnUse">
<stop stop-color="#01A6FF"/>
<stop offset="1" stop-color="#0174FF"/>
</linearGradient>
<linearGradient id="paint1_linear_3595_70" x1="25.7038" y1="23.3164" x2="25.7038" y2="34.1899" gradientUnits="userSpaceOnUse">
<stop stop-color="#01A5FF"/>
<stop offset="1" stop-color="#0174FF"/>
</linearGradient>
<linearGradient id="paint2_linear_3595_70" x1="14.4967" y1="27.8711" x2="14.4967" y2="31.4919" gradientUnits="userSpaceOnUse">
<stop stop-color="#017EFF"/>
<stop offset="1" stop-color="#01A5FF"/>
</linearGradient>
</defs>
</svg>
